<svg width="49" height="51" viewBox="0 0 49 51" fill="none" xmlns="http://www.w3.org/2000/svg" xmlns:xlink="http://www.w3.org/1999/xlink">
<use xlink:href="#stroke0_236_228" transform="translate(27.7749 5.36314) scale(0.0118172) rotate(-19.4819)"/>
<use xlink:href="#stroke0_236_228" transform="translate(26.5711 7.34004) scale(0.0118172) rotate(-53.3038)"/>
<use xlink:href="#stroke0_236_228" transform="translate(30.8973 9.00531) scale(0.0118172) rotate(165.148)"/>
<use xlink:href="#stroke0_236_228" transform="translate(28.5288 10.5312) scale(0.0118172) rotate(-156.036)"/>
<use xlink:href="#stroke0_236_228" transform="translate(26.8337 5.38323) scale(0.0118172) rotate(42.9597)"/>
<use xlink:href="#stroke0_236_228" transform="translate(23.4149 9.94296) scale(0.0118172) rotate(-76.0683)"/>
<use xlink:href="#stroke0_236_228" transform="translate(27.8123 8.33371) scale(0.0118172) rotate(118.294)"/>
<use xlink:href="#stroke0_236_228" transform="translate(26.9569 10.0481) scale(0.0118172) rotate(145.146)"/>
<use xlink:href="#stroke0_236_228" transform="translate(25.002 7.50518) scale(0.0118172) rotate(77.9368)"/>
<use xlink:href="#stroke0_236_228" transform="translate(23.9128 12.6499) scale(0.0118172) rotate(-168.44)"/>
<use xlink:href="#stroke0_236_228" transform="translate(24.0139 9.08602) scale(0.0118172) rotate(99.514)"/>
<use xlink:href="#stroke0_236_228" transform="translate(18.6235 9.15295) scale(0.0118172) rotate(-7.01437)"/>
<use xlink:href="#stroke0_236_228" transform="translate(17.255 10.4191) scale(0.0118172) rotate(-27.2916)"/>
<use xlink:href="#stroke0_236_228" transform="translate(16.3533 10.9628) scale(0.0118172) rotate(-30.1345)"/>
<use xlink:href="#stroke0_236_228" transform="translate(18.3669 9.416) scale(0.0118172) rotate(45.3682)"/>
<use xlink:href="#stroke0_236_228" transform="translate(14.6759 13.6232) scale(0.0118172) rotate(-67.8443)"/>
<use xlink:href="#stroke0_236_228" transform="translate(15.5861 10.3899) scale(0.0118172) rotate(23.3297)"/>
<use xlink:href="#stroke0_236_228" transform="translate(17.091 15.9332) scale(0.0118172) rotate(-168.785)"/>
<use xlink:href="#stroke0_236_228" transform="translate(15.896 11.3022) scale(0.0118172) rotate(64.9161)"/>
<use xlink:href="#stroke0_236_228" transform="translate(12.3115 12.0115) scale(0.0118172) rotate(6.9495)"/>
<use xlink:href="#stroke0_236_228" transform="translate(13.4029 17.5762) scale(0.0118172) rotate(-144.389)"/>
<use xlink:href="#stroke0_236_228" transform="translate(14.0547 13.0001) scale(0.0118172) rotate(81.7273)"/>
<use xlink:href="#stroke0_236_228" transform="translate(8.6538 16.3466) scale(0.0118172) rotate(-63.1806)"/>
<use xlink:href="#stroke0_236_228" transform="translate(13.1935 17.0478) scale(0.0118172) rotate(152.937)"/>
<use xlink:href="#stroke0_236_228" transform="translate(11.9387 18.2009) scale(0.0118172) rotate(169.803)"/>
<use xlink:href="#stroke0_236_228" transform="translate(8.34805 14.0994) scale(0.0118172) rotate(31.7041)"/>
<use xlink:href="#stroke0_236_228" transform="translate(7.40277 20.0942) scale(0.0118172) rotate(-125.709)"/>
<use xlink:href="#stroke0_236_228" transform="translate(5.58237 20.1117) scale(0.0118172) rotate(-104.132)"/>
<use xlink:href="#stroke0_236_228" transform="translate(4.11884 19.981) scale(0.0118172) rotate(-87.0768)"/>
<use xlink:href="#stroke0_236_228" transform="translate(7.26798 20.8375) scale(0.0118172) rotate(-177.076)"/>
<use xlink:href="#stroke0_236_228" transform="translate(1.85688 18.55) scale(0.0118172) rotate(-37.3478)"/>
<use xlink:href="#stroke0_236_228" transform="translate(2.97292 22.2343) scale(0.0118172) rotate(-120.908)"/>
<use xlink:href="#stroke0_236_228" transform="translate(4.95546 17.9119) scale(0.0118172) rotate(82.3205)"/>
<use xlink:href="#stroke0_236_228" transform="translate(1.38118 21.4066) scale(0.0118172) rotate(-69.9939)"/>
<use xlink:href="#stroke0_236_228" transform="translate(5.08448 17.6025) scale(0.0118172) rotate(44.5559)"/>
<use xlink:href="#stroke0_236_228" transform="translate(4.88978 17.8335) scale(0.0118172) rotate(21.071)"/>
<use xlink:href="#stroke0_236_228" transform="translate(8.94887 18.6016) scale(0.0118172) rotate(89.7171)"/>
<use xlink:href="#stroke0_236_228" transform="translate(7.45458 23.3348) scale(0.0118172) rotate(-131.096)"/>
<use xlink:href="#stroke0_236_228" transform="translate(11.3873 19.4756) scale(0.0118172) rotate(110.391)"/>
<use xlink:href="#stroke0_236_228" transform="translate(8.12509 18.1479) scale(0.0118172) rotate(8.32225)"/>
<use xlink:href="#stroke0_236_228" transform="translate(10.176 23.2917) scale(0.0118172) rotate(-128.538)"/>
<use xlink:href="#stroke0_236_228" transform="translate(11.3643 17.6449) scale(0.0118172) rotate(37.3421)"/>
<use xlink:href="#stroke0_236_228" transform="translate(11.783 17.7122) scale(0.0118172) rotate(26.4543)"/>
<use xlink:href="#stroke0_236_228" transform="translate(11.8594 22.7355) scale(0.0118172) rotate(-102.956)"/>
<use xlink:href="#stroke0_236_228" transform="translate(11.8098 21.446) scale(0.0118172) rotate(-70.1463)"/>
<use xlink:href="#stroke0_236_228" transform="translate(13.4436 18.2708) scale(0.0118172) rotate(-1.24296)"/>
<use xlink:href="#stroke0_236_228" transform="translate(18.1582 22.4661) scale(0.0118172) rotate(-178.087)"/>
<use xlink:href="#stroke0_236_228" transform="translate(16.8438 17.4438) scale(0.0118172) rotate(33.0902)"/>
<use xlink:href="#stroke0_236_228" transform="translate(19.338 17.5833) scale(0.0118172) rotate(64.9673)"/>
<use xlink:href="#stroke0_236_228" transform="translate(19.4424 17.3135) scale(0.0118172) rotate(47.3322)"/>
<use xlink:href="#stroke0_236_228" transform="translate(17.8753 21.8078) scale(0.0118172) rotate(-85.6578)"/>
<use xlink:href="#stroke0_236_228" transform="translate(20.8444 22.837) scale(0.0118172) rotate(-133.516)"/>
<use xlink:href="#stroke0_236_228" transform="translate(20.6552 17.4459) scale(0.0118172) rotate(13.2788)"/>
<use xlink:href="#stroke0_236_228" transform="translate(25.6004 18.8262) scale(0.0118172) rotate(110.722)"/>
<use xlink:href="#stroke0_236_228" transform="translate(21.3098 20.9256) scale(0.0118172) rotate(-72.0247)"/>
<use xlink:href="#stroke0_236_228" transform="translate(22.2443 18.5638) scale(0.0118172) rotate(-24.5738)"/>
<use xlink:href="#stroke0_236_228" transform="translate(26.324 22.4053) scale(0.0118172) rotate(-148.858)"/>
<use xlink:href="#stroke0_236_228" transform="translate(29.5438 19.1383) scale(0.0118172) rotate(123.554)"/>
<use xlink:href="#stroke0_236_228" transform="translate(25.9284 21.7272) scale(0.0118172) rotate(-99.7945)"/>
<use xlink:href="#stroke0_236_228" transform="translate(31.2097 20.6466) scale(0.0118172) rotate(156.625)"/>
<use xlink:href="#stroke0_236_228" transform="translate(29.4761 22.2833) scale(0.0118172) rotate(-135.942)"/>
<use xlink:href="#stroke0_236_228" transform="translate(29.8459 22.2144) scale(0.0118172) rotate(-124.125)"/>
<use xlink:href="#stroke0_236_228" transform="translate(29.0077 20.9028) scale(0.0118172) rotate(-77.5924)"/>
<use xlink:href="#stroke0_236_228" transform="translate(35.189 20.1731) scale(0.0118172) rotate(144.693)"/>
<use xlink:href="#stroke0_236_228" transform="translate(31.8278 16.6559) scale(0.0118172) rotate(12.6641)"/>
<use xlink:href="#stroke0_236_228" transform="translate(32.7601 15.3974) scale(0.0118172) rotate(35.4908)"/>
<use xlink:href="#stroke0_236_228" transform="translate(35.106 18.7409) scale(0.0118172) rotate(160.547)"/>
<use xlink:href="#stroke0_236_228" transform="translate(30.3855 14.3314) scale(0.0118172) rotate(4.1793)"/>
<use xlink:href="#stroke0_236_228" transform="translate(29.3328 17.4668) scale(0.0118172) rotate(-84.6106)"/>
<use xlink:href="#stroke0_236_228" transform="translate(30.5681 17.7862) scale(0.0118172) rotate(-127.712)"/>
<use xlink:href="#stroke0_236_228" transform="translate(27.7801 14.9758) scale(0.0118172) rotate(-63.3053)"/>
<use xlink:href="#stroke0_236_228" transform="translate(27.6088 15.11) scale(0.0118172) rotate(-83.0847)"/>
<use xlink:href="#stroke0_236_228" transform="translate(29.1288 9.92652) scale(0.0118172) rotate(38.0867)"/>
<use xlink:href="#stroke0_236_228" transform="translate(28.3036 9.24562) scale(0.0118172) rotate(34.2809)"/>
<use xlink:href="#stroke0_236_228" transform="translate(29.3989 13.8578) scale(0.0118172) rotate(-167.241)"/>
<use xlink:href="#stroke0_236_228" transform="translate(29.9007 9.55623) scale(0.0118172) rotate(107.354)"/>
<use xlink:href="#stroke0_236_228" transform="translate(25.1217 12.5432) scale(0.0118172) rotate(-106.653)"/>
<use xlink:href="#stroke0_236_228" transform="translate(27.1205 7.00035) scale(0.0118172) rotate(68.5154)"/>
<use xlink:href="#stroke0_236_228" transform="translate(24.4364 6.22273) scale(0.0118172) rotate(28.7778)"/>
<use xlink:href="#stroke0_236_228" transform="translate(26.6706 10.0067) scale(0.0118172) rotate(165.035)"/>
<use xlink:href="#stroke0_236_228" transform="translate(24.175 5.20448) scale(0.0118172) rotate(55.9561)"/>
<use xlink:href="#stroke0_236_228" transform="translate(24.4537 9.68207) scale(0.0118172) rotate(-176.912)"/>
<use xlink:href="#stroke0_236_228" transform="translate(20.3974 9.43686) scale(0.0118172) rotate(-107.203)"/>
<use xlink:href="#stroke0_236_228" transform="translate(21.2203 3.70146) scale(0.0118172) rotate(45.8571)"/>
<use xlink:href="#stroke0_236_228" transform="translate(21.3693 8.64416) scale(0.0118172) rotate(-162.226)"/>
<use xlink:href="#stroke0_236_228" transform="translate(17.7629 7.8882) scale(0.0118172) rotate(-102.923)"/>
<use xlink:href="#stroke0_236_228" transform="translate(19.9187 7.56734) scale(0.0118172) rotate(-165.85)"/>
<use xlink:href="#stroke0_236_228" transform="translate(17.3039 7.30941) scale(0.0118172) rotate(-127.678)"/>
<use xlink:href="#stroke0_236_228" transform="translate(19.17 2.09654) scale(0.0118172) rotate(90.6159)"/>
<use xlink:href="#stroke0_236_228" transform="translate(17.74 1.29378) scale(0.0118172) rotate(75.5087)"/>
<use xlink:href="#stroke0_236_228" transform="translate(12.7436 3.55703) scale(0.0118172) rotate(-32.8764)"/>
<use xlink:href="#stroke0_236_228" transform="translate(16.9801 3.09695) scale(0.0118172) rotate(87.3548)"/>
<use xlink:href="#stroke0_236_228" transform="translate(17.3254 6.74902) scale(0.0118172) rotate(148.035)"/>
<use xlink:href="#stroke0_236_228" transform="translate(13.5977 9.61175) scale(0.0118172) rotate(-122.038)"/>
<use xlink:href="#stroke0_236_228" transform="translate(16.2388 9.87598) scale(0.0118172) rotate(178.125)"/>
<use xlink:href="#stroke0_236_228" transform="translate(17.0858 9.01597) scale(0.0118172) rotate(136.829)"/>
<use xlink:href="#stroke0_236_228" transform="translate(12.7651 7.34563) scale(0.0118172) rotate(8.83903)"/>
<use xlink:href="#stroke0_236_228" transform="translate(15.9923 8.29782) scale(0.0118172) rotate(75.4475)"/>
<use xlink:href="#stroke0_236_228" transform="translate(11.9077 10.6607) scale(0.0118172) rotate(-28.7072)"/>
<use xlink:href="#stroke0_236_228" transform="translate(15.5705 9.80498) scale(0.0118172) rotate(58.1721)"/>
<use xlink:href="#stroke0_236_228" transform="translate(12.2875 14.2712) scale(0.0118172) rotate(-64.8478)"/>
<use xlink:href="#stroke0_236_228" transform="translate(14.1688 16.9876) scale(0.0118172) rotate(-115.575)"/>
<use xlink:href="#stroke0_236_228" transform="translate(13.583 13.2062) scale(0.0118172) rotate(-1.2072)"/>
<use xlink:href="#stroke0_236_228" transform="translate(18.6134 16.6274) scale(0.0118172) rotate(141.067)"/>
<use xlink:href="#stroke0_236_228" transform="translate(14.6975 19.5331) scale(0.0118172) rotate(-108.026)"/>
<use xlink:href="#stroke0_236_228" transform="translate(15.5726 15.2677) scale(0.0118172) rotate(24.3028)"/>
<use xlink:href="#stroke0_236_228" transform="translate(19.0551 20.5288) scale(0.0118172) rotate(167.97)"/>
<use xlink:href="#stroke0_236_228" transform="translate(18.8312 21.9927) scale(0.0118172) rotate(-175.743)"/>
<use xlink:href="#stroke0_236_228" transform="translate(15.3363 18.7291) scale(0.0118172) rotate(-5.87829)"/>
<use xlink:href="#stroke0_236_228" transform="translate(15.538 19.7871) scale(0.0118172) rotate(-10.4759)"/>
<use xlink:href="#stroke0_236_228" transform="translate(18.929 25.1227) scale(0.0118172) rotate(-154.257)"/>
<use xlink:href="#stroke0_236_228" transform="translate(18.5804 20.4461) scale(0.0118172) rotate(43.8464)"/>
<use xlink:href="#stroke0_236_228" transform="translate(17.0256 21.9781) scale(0.0118172) rotate(2.35541)"/>
<use xlink:href="#stroke0_236_228" transform="translate(16.9803 23.2449) scale(0.0118172) rotate(-8.6376)"/>
<use xlink:href="#stroke0_236_228" transform="translate(17.8198 28.2274) scale(0.0118172) rotate(-101.722)"/>
<use xlink:href="#stroke0_236_228" transform="translate(18.4942 24.3167) scale(0.0118172) rotate(14.6123)"/>
<use xlink:href="#stroke0_236_228" transform="translate(21.9498 25.3989) scale(0.0118172) rotate(79.7652)"/>
<use xlink:href="#stroke0_236_228" transform="translate(23.6239 28.7259) scale(0.0118172) rotate(159.55)"/>
<use xlink:href="#stroke0_236_228" transform="translate(20.5799 24.3427) scale(0.0118172) rotate(14.6506)"/>
<use xlink:href="#stroke0_236_228" transform="translate(20.665 24.1071) scale(0.0118172) rotate(-0.198184)"/>
<use xlink:href="#stroke0_236_228" transform="translate(22.2266 28.1778) scale(0.0118172) rotate(-117.443)"/>
<use xlink:href="#stroke0_236_228" transform="translate(23.3666 22.013) scale(0.0118172) rotate(32.2066)"/>
<use xlink:href="#stroke0_236_228" transform="translate(23.729 21.3193) scale(0.0118172) rotate(27.4959)"/>
<use xlink:href="#stroke0_236_228" transform="translate(22.1589 23.1742) scale(0.0118172) rotate(-45.5579)"/>
<use xlink:href="#stroke0_236_228" transform="translate(24.4692 25.1418) scale(0.0118172) rotate(-116.485)"/>
<use xlink:href="#stroke0_236_228" transform="translate(24.5116 19.2672) scale(0.0118172) rotate(10.4986)"/>
<use xlink:href="#stroke0_236_228" transform="translate(28.417 22.8784) scale(0.0118172) rotate(177.643)"/>
<use xlink:href="#stroke0_236_228" transform="translate(26.0341 22.711) scale(0.0118172) rotate(-121.518)"/>
<use xlink:href="#stroke0_236_228" transform="translate(30.0329 19.3908) scale(0.0118172) rotate(137.48)"/>
<use xlink:href="#stroke0_236_228" transform="translate(26.2492 20.7542) scale(0.0118172) rotate(-110.895)"/>
<use xlink:href="#stroke0_236_228" transform="translate(29.5528 19.5957) scale(0.0118172) rotate(-175.046)"/>
<use xlink:href="#stroke0_236_228" transform="translate(29.397 18.9554) scale(0.0118172) rotate(-164.806)"/>
<use xlink:href="#stroke0_236_228" transform="translate(27.044 13.0021) scale(0.0118172) rotate(14.0534)"/>
<use xlink:href="#stroke0_236_228" transform="translate(26.1101 15.9297) scale(0.0118172) rotate(-76.1978)"/>
<use xlink:href="#stroke0_236_228" transform="translate(30.4953 15.9841) scale(0.0118172) rotate(-173.479)"/>
<use xlink:href="#stroke0_236_228" transform="translate(26.3397 12.9577) scale(0.0118172) rotate(-51.5873)"/>
<use xlink:href="#stroke0_236_228" transform="translate(26.734 11.2635) scale(0.0118172) rotate(-35.223)"/>
<use xlink:href="#stroke0_236_228" transform="translate(28.0806 8.77078) scale(0.0118172) rotate(3.88309)"/>
<use xlink:href="#stroke0_236_228" transform="translate(27.3721 10.62) scale(0.0118172) rotate(-58.2726)"/>
<use xlink:href="#stroke0_236_228" transform="translate(33.3373 9.34773) scale(0.0118172) rotate(134.329)"/>
<use xlink:href="#stroke0_236_228" transform="translate(32.1893 5.84337) scale(0.0118172) rotate(68.6362)"/>
<use xlink:href="#stroke0_236_228" transform="translate(34.05 6.52549) scale(0.0118172) rotate(110.334)"/>
<use xlink:href="#stroke0_236_228" transform="translate(33.9 4.72771) scale(0.0118172) rotate(85.2123)"/>
<use xlink:href="#stroke0_236_228" transform="translate(31.2156 3.72563) scale(0.0118172) rotate(19.834)"/>
<g filter="url(#filter0_d_236_228)">
<path d="M11.8602 46.3203H10.4002L9.48022 42.8503H9.46022L8.58022 46.3203H7.11022L5.47022 41.1503H6.97022L7.92022 44.6603H7.94022L8.80022 41.1503H10.1802L11.0602 44.6503H11.0802L12.0302 41.1503H13.4902L11.8602 46.3203ZM14.8547 43.7403C14.8547 43.947 14.8747 44.1503 14.9147 44.3503C14.9547 44.5436 15.0214 44.7203 15.1147 44.8803C15.2147 45.0336 15.3447 45.157 15.5047 45.2503C15.6647 45.3436 15.8647 45.3903 16.1047 45.3903C16.3447 45.3903 16.5447 45.3436 16.7047 45.2503C16.8714 45.157 17.0014 45.0336 17.0947 44.8803C17.1947 44.7203 17.2647 44.5436 17.3047 44.3503C17.3447 44.1503 17.3647 43.947 17.3647 43.7403C17.3647 43.5336 17.3447 43.3303 17.3047 43.1303C17.2647 42.9303 17.1947 42.7536 17.0947 42.6003C17.0014 42.447 16.8714 42.3236 16.7047 42.2303C16.5447 42.1303 16.3447 42.0803 16.1047 42.0803C15.8647 42.0803 15.6647 42.1303 15.5047 42.2303C15.3447 42.3236 15.2147 42.447 15.1147 42.6003C15.0214 42.7536 14.9547 42.9303 14.9147 43.1303C14.8747 43.3303 14.8547 43.5336 14.8547 43.7403ZM13.4347 43.7403C13.4347 43.327 13.4981 42.9536 13.6247 42.6203C13.7514 42.2803 13.9314 41.9936 14.1647 41.7603C14.3981 41.5203 14.6781 41.337 15.0047 41.2103C15.3314 41.077 15.6981 41.0103 16.1047 41.0103C16.5114 41.0103 16.8781 41.077 17.2047 41.2103C17.5381 41.337 17.8214 41.5203 18.0547 41.7603C18.2881 41.9936 18.4681 42.2803 18.5947 42.6203C18.7214 42.9536 18.7847 43.327 18.7847 43.7403C18.7847 44.1536 18.7214 44.527 18.5947 44.8603C18.4681 45.1936 18.2881 45.4803 18.0547 45.7203C17.8214 45.9536 17.5381 46.1336 17.2047 46.2603C16.8781 46.387 16.5114 46.4503 16.1047 46.4503C15.6981 46.4503 15.3314 46.387 15.0047 46.2603C14.6781 46.1336 14.3981 45.9536 14.1647 45.7203C13.9314 45.4803 13.7514 45.1936 13.6247 44.8603C13.4981 44.527 13.4347 44.1536 13.4347 43.7403ZM19.208 41.1503H20.558V42.1103H20.578C20.6447 41.9503 20.7347 41.8036 20.848 41.6703C20.9614 41.5303 21.0914 41.4136 21.238 41.3203C21.3847 41.2203 21.5414 41.1436 21.708 41.0903C21.8747 41.037 22.048 41.0103 22.228 41.0103C22.3214 41.0103 22.4247 41.027 22.538 41.0603V42.3803C22.4714 42.367 22.3914 42.357 22.298 42.3503C22.2047 42.337 22.1147 42.3303 22.028 42.3303C21.768 42.3303 21.548 42.3736 21.368 42.4603C21.188 42.547 21.0414 42.667 20.928 42.8203C20.8214 42.967 20.7447 43.1403 20.698 43.3403C20.6514 43.5403 20.628 43.757 20.628 43.9903V46.3203H19.208V41.1503ZM22.7247 39.1803H24.1447V43.0103L25.9347 41.1503H27.6147L25.6647 43.0503L27.8347 46.3203H26.1147L24.6947 44.0103L24.1447 44.5403V46.3203H22.7247V39.1803ZM27.8969 44.7803H29.4669V46.3203H27.8969V44.7803ZM31.6701 40.3503H30.2501V39.1803H31.6701V40.3503ZM29.4001 46.9203C29.4735 46.947 29.5735 46.9603 29.7001 46.9603C29.8468 46.9603 29.9735 46.9303 30.0801 46.8703C30.1935 46.817 30.2501 46.6936 30.2501 46.5003V41.1503H31.6701V46.5703C31.6701 46.837 31.6401 47.067 31.5801 47.2603C31.5268 47.4536 31.4301 47.6136 31.2901 47.7403C31.1568 47.8736 30.9735 47.9703 30.7401 48.0303C30.5068 48.097 30.2101 48.1303 29.8501 48.1303C29.6835 48.1303 29.5335 48.117 29.4001 48.0903V46.9203ZM35.0133 45.3903C35.2467 45.3903 35.44 45.3436 35.5933 45.2503C35.7533 45.157 35.88 45.037 35.9733 44.8903C36.0733 44.737 36.1433 44.5603 36.1833 44.3603C36.2233 44.1603 36.2433 43.957 36.2433 43.7503C36.2433 43.5436 36.22 43.3403 36.1733 43.1403C36.1333 42.9403 36.0633 42.7636 35.9633 42.6103C35.8633 42.4503 35.7333 42.3236 35.5733 42.2303C35.42 42.1303 35.23 42.0803 35.0033 42.0803C34.77 42.0803 34.5733 42.1303 34.4133 42.2303C34.26 42.3236 34.1333 42.447 34.0333 42.6003C33.94 42.7536 33.8733 42.9303 33.8333 43.1303C33.7933 43.3303 33.7733 43.537 33.7733 43.7503C33.7733 43.957 33.7933 44.1603 33.8333 44.3603C33.88 44.5603 33.95 44.737 34.0433 44.8903C34.1433 45.037 34.2733 45.157 34.4333 45.2503C34.5933 45.3436 34.7867 45.3903 35.0133 45.3903ZM32.4033 41.1503H33.7533V41.8103H33.7733C33.9467 41.5303 34.1667 41.327 34.4333 41.2003C34.7 41.0736 34.9933 41.0103 35.3133 41.0103C35.72 41.0103 36.07 41.087 36.3633 41.2403C36.6567 41.3936 36.9 41.597 37.0933 41.8503C37.2867 42.1036 37.43 42.4003 37.5233 42.7403C37.6167 43.0736 37.6633 43.4236 37.6633 43.7903C37.6633 44.137 37.6167 44.4703 37.5233 44.7903C37.43 45.1103 37.2867 45.3936 37.0933 45.6403C36.9067 45.887 36.67 46.0836 36.3833 46.2303C36.1033 46.377 35.7733 46.4503 35.3933 46.4503C35.0733 46.4503 34.7767 46.387 34.5033 46.2603C34.2367 46.127 34.0167 45.9336 33.8433 45.6803H33.8233V48.1303H32.4033V41.1503ZM40.4266 45.1003C40.6266 45.1003 40.8033 45.0603 40.9566 44.9803C41.11 44.9003 41.2366 44.7936 41.3366 44.6603C41.4366 44.527 41.51 44.377 41.5566 44.2103C41.61 44.037 41.6366 43.857 41.6366 43.6703C41.6366 43.457 41.6166 43.257 41.5766 43.0703C41.5366 42.877 41.47 42.707 41.3766 42.5603C41.2833 42.4136 41.16 42.297 41.0066 42.2103C40.8533 42.1236 40.66 42.0803 40.4266 42.0803C40.2266 42.0803 40.0533 42.1203 39.9066 42.2003C39.7666 42.2803 39.6466 42.3903 39.5466 42.5303C39.4533 42.6636 39.3833 42.8203 39.3366 43.0003C39.2966 43.1736 39.2766 43.357 39.2766 43.5503C39.2766 43.737 39.2933 43.9236 39.3266 44.1103C39.3666 44.2903 39.43 44.4536 39.5166 44.6003C39.61 44.747 39.73 44.867 39.8766 44.9603C40.0233 45.0536 40.2066 45.1003 40.4266 45.1003ZM42.9866 45.9903C42.9866 46.197 42.9566 46.4336 42.8966 46.7003C42.8433 46.967 42.7233 47.2136 42.5366 47.4403C42.35 47.6736 42.08 47.8703 41.7266 48.0303C41.3733 48.1903 40.9 48.2703 40.3066 48.2703C40.0533 48.2703 39.7933 48.237 39.5266 48.1703C39.2666 48.1103 39.0266 48.0136 38.8066 47.8803C38.5933 47.747 38.4133 47.5736 38.2666 47.3603C38.1266 47.1536 38.0466 46.9036 38.0266 46.6103H39.4366C39.5033 46.877 39.6333 47.0603 39.8266 47.1603C40.02 47.267 40.2433 47.3203 40.4966 47.3203C40.8966 47.3203 41.1866 47.2003 41.3666 46.9603C41.5533 46.7203 41.6433 46.417 41.6366 46.0503V45.3703H41.6166C41.4633 45.6436 41.2433 45.847 40.9566 45.9803C40.6766 46.107 40.38 46.1703 40.0666 46.1703C39.68 46.1703 39.3466 46.1036 39.0666 45.9703C38.7866 45.8303 38.5566 45.6436 38.3766 45.4103C38.1966 45.1703 38.0633 44.8936 37.9766 44.5803C37.8966 44.2603 37.8566 43.9236 37.8566 43.5703C37.8566 43.237 37.9033 42.917 37.9966 42.6103C38.0966 42.297 38.24 42.0236 38.4266 41.7903C38.6133 41.5503 38.8433 41.3603 39.1166 41.2203C39.3966 41.0803 39.7166 41.0103 40.0766 41.0103C40.4166 41.0103 40.7133 41.0736 40.9666 41.2003C41.2266 41.327 41.4433 41.5403 41.6166 41.8403H41.6366V41.1503H42.9866V45.9903Z" fill="white"/>
</g>
<defs>
<filter id="filter0_d_236_228" x="3.47021" y="37.6807" width="41.5166" height="13.0898" filterUnits="userSpaceOnUse" color-interpolation-filters="sRGB">
<feFlood flood-opacity="0" result="BackgroundImageFix"/>
<feColorMatrix in="SourceAlpha" type="matrix" values="0 0 0 0 0 0 0 0 0 0 0 0 0 0 0 0 0 0 127 0" result="hardAlpha"/>
<feOffset dy="0.5"/>
<feGaussianBlur stdDeviation="1"/>
<feComposite in2="hardAlpha" operator="out"/>
<feColorMatrix type="matrix" values="0 0 0 0 0 0 0 0 0 0 0 0 0 0 0 0 0 0 0.6 0"/>
<feBlend mode="normal" in2="BackgroundImageFix" result="effect1_dropShadow_236_228"/>
<feBlend mode="normal" in="SourceGraphic" in2="effect1_dropShadow_236_228" result="shape"/>
</filter>
<g id="stroke0_236_228" data-figma-scatter-ref="stroke0_236_228_ref" data-figma-scatter="f0.25_w0_aj180_sj0_r0_s15599071636731658001_sw4.219">
<path d="M188.25 354.718C188.938 354.472 189.845 354.465 190.266 354.704C191.408 355.351 190.097 357 188.441 357C186.672 357 186.532 355.334 188.25 354.718ZM195.75 342.746C198.146 342.198 198.734 342.898 199.533 347.25C199.992 349.747 199.851 351 199.111 351C198.5 351 198 350.502 198 349.893C198 349.284 197.317 349.048 196.483 349.368C194.999 349.938 191.001 347.319 191 345.778C191 345.35 191.675 345 192.5 345C193.325 345 194 344.583 194 344.073C194 343.564 194.788 342.966 195.75 342.746ZM202 341.1C202 339.933 202.267 339.867 203.2 340.8C203.86 341.46 205.27 342 206.333 342C210.447 342 213.254 347.35 209.75 348.514C204.178 350.364 200.775 349.181 203.215 346.241C204.018 345.273 204.003 344.603 203.158 343.758C202.521 343.121 202 341.925 202 341.1ZM246 341.893C246.001 340.641 248.743 340.777 249.541 342.067C249.904 342.653 249.995 343.339 249.743 343.59C249.046 344.288 246 342.907 246 341.893ZM182.059 341C183.133 341 183.311 342.355 182.361 343.306C181.437 344.23 179.86 343.036 180.543 341.931C180.859 341.419 181.541 341 182.059 341ZM192.556 323.91C193.303 322.701 194.158 322.804 196.184 324.344C198.692 326.25 199.443 330.387 197.564 331.947C196.704 332.661 195.985 333.752 195.967 334.372C195.913 336.191 192.315 339.999 190.649 340C189.807 340 188.84 340.45 188.5 341C187.403 342.774 185.846 342.062 186.476 340.074C186.84 338.93 186.523 337.814 185.696 337.324C184.753 336.766 184.452 335.289 184.761 332.75C185.217 329.016 186.638 328.038 188.664 330.064C190.074 331.474 193.33 328.306 192.554 326.281C192.246 325.477 192.247 324.41 192.556 323.91ZM211.5 341C211.775 341 212 341.225 212 341.5C212 341.775 211.775 342 211.5 342C211.225 342 211 341.775 211 341.5C211 341.225 211.225 341 211.5 341ZM198.5 339C198.775 339 199 339.225 199 339.5C199 339.775 198.775 340 198.5 340C198.225 340 198 339.775 198 339.5C198 339.225 198.225 339 198.5 339ZM180.5 335C180.775 335 181 335.225 181 335.5C181 335.775 180.775 336 180.5 336C180.225 336 180 335.775 180 335.5C180 335.225 180.225 335 180.5 335ZM211.617 330C211.827 330.001 212 330.9 212 332C212 333.1 211.592 334 211.094 334C210.595 334 210.423 333.1 210.71 332C210.998 330.9 211.406 330 211.617 330ZM215 332C215.733 332 216.033 332.3 215.667 332.667C215.3 333.033 214.7 333.033 214.333 332.667C213.967 332.3 214.267 332 215 332ZM204.5 329C205.325 329 206 329.45 206 330C206 330.55 205.325 331 204.5 331C203.675 331 203 330.55 203 330C203 329.45 203.675 329 204.5 329ZM208 330C208.733 330 209.033 330.3 208.667 330.667C208.3 331.033 207.7 331.033 207.333 330.667C206.967 330.3 207.267 330 208 330ZM179 326C181.293 326 181.685 327.523 179.598 328.324C178.126 328.889 177 328.242 177 326.833C177 326.375 177.9 326 179 326ZM149.667 317.667C150.729 316.605 158 316.896 158 318C158 318.55 157.55 319 157 319C156.45 319 156 319.675 156 320.5C156 321.325 156.48 322 157.066 322C158.544 322.001 157.792 327.249 156.242 327.759C155.488 328.007 154.738 326.942 154.37 325.098C153.842 322.459 153.418 322.108 151.377 322.62C149.023 323.211 147.765 319.569 149.667 317.667ZM97.9648 318.542C99.6438 316.52 104 316.507 104 318.525C103.999 320.474 99.0676 322.468 97.6797 321.08C97.0198 320.42 97.1159 319.565 97.9648 318.542ZM173.5 319C173.775 319 174 319.225 174 319.5C174 319.775 173.775 320 173.5 320C173.225 320 173 319.775 173 319.5C173 319.225 173.225 319 173.5 319ZM204 317C204.55 317 205 317.45 205 318C205 318.55 204.55 319 204 319C203.45 319 203 318.55 203 318C203 317.45 203.45 317 204 317ZM237.5 318C237.775 318 238 318.225 238 318.5C238 318.775 237.775 319 237.5 319C237.225 319 237 318.775 237 318.5C237 318.225 237.225 318 237.5 318ZM125.152 311.871C127.336 310.464 129.394 311.335 130.797 314.262C131.519 315.767 132.535 317 133.055 317C133.575 317 134 317.48 134 318.067C133.999 319.298 129.837 318.255 128.894 316.788C128.559 316.27 127.451 315.993 126.43 316.173C124.177 316.57 123.162 313.153 125.152 311.871ZM160.606 316.416C160.233 315.443 160.456 314.986 161.187 315.229C162.681 315.727 163.505 318 162.19 318C161.653 318 160.941 317.287 160.606 316.416ZM198.441 288C200.32 288 201.334 289.676 199.967 290.52C199.313 290.925 199.945 292.146 201.605 293.685C204.428 296.3 204.395 296.403 199.862 299.009C197.893 300.141 196.72 307.321 198.624 306.591C200.027 306.053 202.314 308.352 201.343 309.324C200.99 309.676 199.694 309.71 198.461 309.401C195.895 308.757 194.227 310.627 195.887 312.287C197.217 313.617 197.38 318 196.1 318C195.604 317.999 194.646 315.692 193.969 312.872C193.155 309.477 192.139 307.588 190.962 307.28C188.761 306.704 187.697 303.07 189.199 301.26C190.888 299.225 188.614 297.245 186.553 298.956C185.711 299.655 185.269 300.626 185.57 301.113C185.871 301.601 185.694 302 185.175 302C184.657 302 184.369 304.022 184.535 306.491C184.847 311.115 183.275 313.767 182.34 310.193C181.727 307.849 177.912 306.525 176.827 308.279C176.297 309.138 175.775 309.175 175.009 308.409C173.548 306.948 174.818 304 176.909 304C178.039 304 179.209 302.321 180.414 298.97C181.885 294.879 182.482 294.155 183.611 295.092C184.716 296.009 185 295.845 185 294.291C185 290.641 189.312 289.431 192.891 292.077C196.6 294.82 196.679 295.299 193.75 297.269C190.976 299.134 192.013 300.599 194.982 299.01C196.456 298.221 197.081 297.011 196.962 295.178C196.866 293.705 196.836 291.488 196.894 290.25C196.953 289.007 197.645 288 198.441 288ZM231 314C231.55 314 232 314.45 232 315C232 315.55 231.55 316 231 316C230.45 316 230 315.55 230 315C230 314.45 230.45 314 231 314ZM202.5 314C202.775 314 203 314.225 203 314.5C203 314.775 202.775 315 202.5 315C202.225 315 202 314.775 202 314.5C202 314.225 202.225 314 202.5 314ZM237.543 312.931C238.293 311.716 241 311.724 241 312.941C241 314.291 239.177 315.227 237.984 314.49C237.425 314.144 237.226 313.443 237.543 312.931ZM251.553 312.915C251.875 312.394 252.564 312.231 253.085 312.553C253.606 312.875 253.769 313.564 253.447 314.085C253.125 314.606 252.436 314.769 251.915 314.447C251.394 314.125 251.231 313.436 251.553 312.915ZM181.25 54.0996C182.409 53.9447 182.136 57.8089 180.842 59.8809C179.354 62.2639 180.473 65.2031 182.743 64.8721C187.301 64.2092 191.219 67.826 188.931 70.583C187.274 72.5789 188.66 73.9218 193.112 74.6338C196.1 75.1117 196.965 75.6489 196.537 76.7627C196.223 77.5827 196.478 78.871 197.105 79.627C198.411 81.1988 205 81.5099 205 80C205 79.45 204.1 79 203 79C201.851 79 201 78.3326 201 77.4326C201 76.3339 201.583 76.0504 202.949 76.4844C204.184 76.8762 205.6 76.4014 206.812 75.1885C211.126 70.8755 220 72.1095 220 77.0225C220 77.8904 220.501 79.101 221.113 79.7129C222.464 81.0639 221.445 83 219.382 83C218.557 83.0001 218.16 83.45 218.5 84C218.84 84.5499 219.991 84.9999 221.059 85C222.127 85 223 85.5089 223 86.1309C223 86.8568 224.21 87.0649 226.382 86.7129C228.343 86.3949 230.251 86.6512 230.924 87.3242C231.803 88.203 232.289 88.1499 232.936 87.1045C233.63 85.9815 234.196 86.1055 235.985 87.7715C238.782 90.3783 238.28 93.4102 234.99 93.7803C228.924 94.4622 228.336 94.851 228.257 98.2266C228.067 106.332 229.343 107.741 236.507 107.341C242.613 107 242.989 107.108 243.558 109.376C244.006 111.16 244.664 111.639 246.139 111.253C247.563 110.881 248.275 111.334 248.676 112.868C248.982 114.041 249.631 115 250.117 115C252.29 115 250.673 116.716 247.377 117.908C243.811 119.198 242.071 118.497 242.015 115.75C242.007 115.338 241.498 115 240.883 115C240.251 115 239.999 115.886 240.301 117.043C240.652 118.385 240.177 119.497 238.918 120.284C236.304 121.916 236.509 123 239.433 123C240.919 123 242.093 123.718 242.452 124.848C244.056 129.902 253 129.835 253 124.769C253 122.203 253.223 121.94 254.5 123C256.174 124.39 256.559 129 255 129C254.45 129 254 130.125 254 131.5C254 134.507 256.534 134.889 257.291 131.996C257.638 130.667 258.347 130.196 259.394 130.598C261.388 131.363 263.127 127.154 262.905 122.101C262.818 120.121 263.077 117.713 263.48 116.75C264.458 114.417 262.844 114.533 260 117C257.026 119.58 256.347 119.519 255.617 116.611C255.25 115.148 254.027 113.973 252.466 113.581C251.063 113.229 249.626 112.166 249.273 111.22C248.92 110.274 247.815 108.912 246.816 108.193C244.702 106.672 244.347 103.812 246.369 104.588C247.19 104.903 248.04 104.191 248.496 102.807C249.254 100.5 249.254 100.5 249.697 102.75C250.213 105.374 251.267 105.59 253.357 103.5C255.023 101.834 258 101.476 258 102.941C258 103.459 257.578 104.142 257.063 104.461C256.246 104.966 253 110.712 253 111.654C253.001 111.844 253.874 112 254.941 112C256.009 112 257.16 112.45 257.5 113C258.581 114.749 259.721 114.088 261.016 110.961C262.117 108.304 262.05 107.757 260.486 106.613C259.241 105.703 259.047 105.089 259.849 104.594C262.6 102.893 261.141 99.7223 257.905 100.369C255.36 100.878 254.716 100.632 254.285 98.9834C253.997 97.8804 252.693 96.7098 251.388 96.3828C249.472 95.9018 249.131 95.3254 249.616 93.3936C249.979 91.9471 249.778 91.0004 249.108 91C248.499 91 248 91.5791 248 92.2871C248 92.995 247.114 93.6406 246.032 93.7227C244.499 93.8377 244.252 93.4976 244.915 92.1846C245.383 91.2574 246.325 89.2998 247.007 87.834C248.425 84.787 251.842 83.4251 252.668 85.5781C253.389 87.457 255 87.403 255 85.5C255 84.7264 254.604 84.0848 254.102 84.0078L253.898 83.9922C253.396 83.9152 253 83.2736 253 82.5C253 81.496 254.004 81 256.035 81C257.705 81 260.106 80.3212 261.373 79.4922C263.951 77.8022 267.979 80.6079 266.473 83.0439C265.966 83.8638 266.387 84.012 267.88 83.5381C270.315 82.7651 271.868 85.2127 270.243 87.2627C269.057 88.7567 268.018 97.4732 268.883 98.6572C269.859 99.9912 273.826 102 275.486 102C277.386 102 277.378 102.751 275.438 106.472C274.063 109.111 274.057 109.568 275.388 110.542C276.694 111.496 276.636 111.821 274.944 113.04C272.496 114.805 272.166 122.466 274.5 123.362C275.325 123.678 276 123.501 276 122.969C276 121.549 279.328 121.788 281.48 123.362C283.612 124.921 287 124.386 287 122.49C287 120.85 289.988 119.66 290.036 121.281C290.056 121.952 291.179 121.15 292.531 119.5C294.259 117.392 294.992 116.987 294.995 118.139C294.998 119.218 296.194 120.001 298.5 120.434C301.134 120.928 302 121.593 302 123.119C302 124.52 302.54 125.036 303.75 124.787C306.384 124.246 307.997 126.912 306.725 129.704C306.15 130.967 305.325 132 304.892 132C303.291 132.001 304.356 139.999 305.962 140.032C308.323 140.081 310.998 142.505 311.015 144.61C311.034 146.928 312.089 148.467 313.75 148.6C314.438 148.655 315.9 148.767 317 148.85C318.1 148.933 319 149.675 319 150.5C319 151.325 319.45 152 320 152C320.55 152 321 152.502 321 153.117C321 153.772 320.174 153.979 319 153.617C317.9 153.277 316.113 152.726 315.029 152.391C313.349 151.872 312.962 152.388 312.401 155.891C311.722 160.141 311.135 160.735 309.363 158.963C308.647 158.247 307.431 158.266 305.434 159.025C303.406 159.796 302.436 159.806 302.188 159.062C301.427 156.78 299 158.058 298.985 160.75C298.965 164.215 298.09 165.546 295.25 166.433C294.012 166.819 293 167.554 293 168.067C293 169.24 294.304 169.272 295.55 168.129C297.875 165.998 301.76 165.975 302.313 168.089C302.717 169.635 302.476 170.013 301.356 169.583C300.275 169.168 299.906 169.634 300.03 171.254C300.124 172.489 299.889 174.471 299.508 175.658C298.707 178.153 295 179.59 295 177.406C295 175.82 294.802 175.755 292.582 176.607C291.712 176.941 290.986 178.178 290.968 179.357C290.919 182.705 288.175 185.892 286.976 183.995C286.426 183.125 286.024 182.992 286.015 183.677C286.007 184.324 285.212 185.005 284.25 185.19C282.138 185.598 281.66 195.676 283.655 197.75C285.266 199.425 291.315 199.425 290.73 197.75C290.489 197.063 289.599 196.621 288.751 196.77C287.67 196.959 287.254 196.287 287.355 194.521C287.545 191.227 290.242 191.215 292.001 194.501C293.161 196.67 293.55 196.82 294.92 195.632C296.789 194.01 299 194.558 299 196.642C299 197.454 298.55 197.84 298 197.5C297.45 197.16 297 197.584 297 198.441C297 199.298 297.45 200 298 200C298.55 200 299 200.801 299 201.781C299 202.841 300.214 204.02 302 204.694C305.264 205.926 306.192 209.605 303.5 210.638C299.614 212.13 302.684 215 308.165 215C310.136 215 311.014 215.429 310.723 216.25C310.479 216.938 309.317 217.393 308.14 217.262C306.963 217.131 306 217.468 306 218.012C306 218.555 306.436 219 306.969 219C307.501 219 307.697 219.625 307.404 220.389C307.077 221.242 306.026 221.576 304.685 221.253C302.896 220.823 302.726 220.971 303.75 222.064C305.425 223.854 305.327 225 303.5 225C302.5 225 302 226 302 228C302 229.972 302.503 231 303.469 231C304.332 231 304.711 230.41 304.388 229.568C303.609 227.54 308.996 224.859 311.281 226.137C312.226 226.666 313 227.752 313 228.55C313 229.347 313.909 230 315.019 230C316.654 230 316.923 230.459 316.432 232.413C316.008 234.104 316.452 235.452 317.913 236.913C320.614 239.614 320.545 240 317.365 240C315.838 240 313.754 241.052 312.412 242.5C309.611 245.523 308.41 245.634 307 243C306.411 241.9 305.083 241 304.048 241C303.013 241 302.017 240.561 301.833 240.026C301.65 239.49 300.519 239.309 299.319 239.624C298.011 239.968 297.347 240.741 297.66 241.557C297.988 242.412 297.221 243.157 295.591 243.567C294.166 243.924 293 244.618 293 245.108C292.999 245.599 291.599 246 289.889 246C286.875 246 286.798 245.891 287.434 242.5C287.844 240.313 287.698 239 287.045 239C286.47 239 286 238.325 286 237.5C286 236.675 285.55 236 285 236C284.45 236 284 236.45 284 237C284 237.516 283.209 237.944 282.204 237.995L281.796 238.005C280.791 238.057 280 238.489 280 239.01C280 239.565 280.9 240.79 282 241.732C283.1 242.674 284 244.196 284 245.115C284 246.914 285.869 247.953 289.332 248.079C290.524 248.122 291.004 248.363 290.398 248.613C289.719 248.893 289.422 251.284 289.623 254.842C290.219 265.359 274.689 267.098 265.75 257.515C260.912 252.328 248 249.046 248 253.002C248 254.813 244.501 255.038 243.237 253.309C242.096 251.749 241.795 251.708 240.976 253.005C238.296 257.244 245.678 262.222 250.806 259.634C254.06 257.992 256 258.514 256 261.032C256 262.058 257.098 264.081 258.438 265.528C261.919 269.284 261.509 274.972 257.622 276.845C255.483 277.876 254.958 278.696 255.374 280.353C256.194 283.622 254.655 285.381 251.637 284.624C249.219 284.017 249.068 284.193 249.192 287.488C249.293 290.182 249.752 291 251.162 291C253.792 291 253.43 292.488 250.301 294.538C248.457 295.747 247.48 295.941 247.218 295.153C246.653 293.458 243.935 293.749 241.733 295.741C239.892 297.408 239.727 297.375 237.905 294.991C236.858 293.621 235.527 291.932 234.949 291.237C234.371 290.543 234.143 289.578 234.443 289.092C234.743 288.607 234.316 287.952 233.494 287.636C232.672 287.321 232 286.175 232 285.09C232 282.246 230.282 281.604 229.014 283.975C228.14 285.608 228.325 286.433 229.963 288.191C231.084 289.393 232 290.755 232 291.22C232 292.65 228.65 293.451 228.209 292.127C227.983 291.448 226.772 289.905 225.52 288.697C223.088 286.352 221.812 282.516 221.712 277.25C221.678 275.462 221.295 274.001 220.86 274C219.664 274 217.969 277.636 218.785 278.451C220.551 280.218 220.62 291.999 218.871 293.08C218.149 293.526 217.944 294.253 218.416 294.696C218.888 295.138 219.475 294.938 219.72 294.25C220.338 292.521 222.664 292.681 223.362 294.5C223.777 295.584 223.252 296 221.469 296C219.986 296 219 296.575 219 297.441C219 299.388 221.049 300.539 221.942 299.094C222.338 298.455 223.411 298.221 224.33 298.573C225.463 299.008 226 298.697 226 297.607C226 295.414 228.991 295.555 229.036 297.75C229.064 299.134 229.543 298.924 231.324 296.75C233.24 294.41 236 293.035 236 294.421C236 296.374 227.557 302.993 225.784 302.431C223.991 301.862 223.808 302.099 224.356 304.283C224.988 306.799 221.393 308.978 219.026 307.516C218.54 307.216 217.998 307.954 217.821 309.157C217.645 310.359 216.942 311.527 216.259 311.752C215.368 312.045 215.192 311.292 215.634 309.08C216.093 306.784 215.885 306 214.814 306C210.972 306 208.809 302.076 210.976 299.034C212.089 297.471 213 294.983 213 293.506C213 291.959 213.918 290.078 215.164 289.068C217.753 286.972 218.839 282.464 216.543 283.345C215.729 283.657 214.76 283.421 214.389 282.82C213.962 282.13 213.038 282.606 211.879 284.114C210.57 285.817 210.039 286.056 210.022 284.95C210.01 284.097 210.562 282.804 211.25 282.075C212.25 281.015 212.25 280.658 211.25 280.292C210.563 280.04 210 278.547 210 276.976C210 273.498 209.415 273.099 205.25 273.733C202.014 274.225 200.644 276 203.5 276C205.285 276 205.637 282.487 203.91 283.556C202.86 284.205 194 284.871 194 284.302C194.001 283.208 197.542 280.217 198.29 280.679C198.804 280.997 199.616 280.636 200.096 279.878C201.379 277.854 201.189 276.99 199.595 277.602C198.645 277.966 197.972 277.147 197.515 275.071C196.657 271.162 195 271.078 195 274.943C195 277.771 191.508 285 190.142 285C188.874 284.999 187.037 281.067 187.609 279.578C187.925 278.752 187.481 276.666 186.621 274.942C185.281 272.255 185.267 271.889 186.529 272.373C187.338 272.683 188 272.471 188 271.901C188 271.331 188.824 271.127 189.832 271.447C191.936 272.115 195.568 268.731 194.539 267.063C193.49 265.365 191.234 265.828 189.668 268.063C188.249 270.09 188.2 270.073 186.868 267.063C185.176 263.241 183.562 263.061 184.305 266.777C184.8 269.252 184.486 269.672 181.408 270.635C178.301 271.608 178.012 271.539 178.518 269.942C179.266 267.587 176.996 266.256 175.819 268.36C174.473 270.765 172.8 270.362 170.137 266.991C166.396 262.255 161.521 262.659 162.329 267.638C162.653 269.639 163.791 272.089 164.857 273.082C165.924 274.075 167.039 275.476 167.335 276.194C167.744 277.185 168.22 277.074 169.31 275.733C171.062 273.576 173.6 274.364 174.369 277.302C174.817 279.017 175.19 279.21 176.167 278.233C177.833 276.567 180.661 276.674 181.334 278.427C182.132 280.507 179.128 282.826 178 281C176.889 279.202 174 281.397 174 284.039C174 285.026 173.438 286.062 172.75 286.341C171.807 286.723 171.866 287.101 172.987 287.879C174.257 288.761 174.139 289.222 172.169 291.057C170.876 292.261 170.114 293.853 170.432 294.684C170.744 295.498 171 297.038 171 298.107C171 299.481 171.912 300.232 174.112 300.672C176.625 301.175 176.913 301.469 175.604 302.202C174.714 302.7 173.538 302.832 172.992 302.495C172.446 302.158 172 302.584 172 303.441C172 304.305 171.155 305 170.105 305C167.914 305 163.771 297.629 165.173 296.227C166.89 294.509 167.068 288.241 165.418 287.607C164.568 287.281 164.191 286.499 164.58 285.87C164.977 285.228 164.277 283.963 162.986 282.989C161.72 282.035 160.618 280.352 160.537 279.25C160.306 276.112 157.268 273.533 155.516 274.987C154.71 275.655 153.523 275.82 152.794 275.365C149.604 273.375 148.324 274.014 148.186 277.663C148.112 279.643 147.809 282.028 147.512 282.961C147.069 284.358 147.506 284.579 149.987 284.215C151.798 283.949 153 284.217 153 284.887C153 285.54 154.861 286 157.5 286C161.6 286 162 286.216 162 288.433C162 291.142 159.27 292.538 156 291.5C152.847 290.499 153.669 292.686 157 294.16C160.501 295.71 160.842 297.479 157.939 299.033C155.822 300.165 155.751 302.5 157.833 302.5C159.01 302.5 159.065 303.036 158.217 306.278C157.908 307.458 157.149 307.865 155.96 307.487C154.975 307.175 153.88 307.387 153.525 307.959C153.171 308.532 152.009 309 150.941 309C149.873 309 149 309.48 149 310.067C149 310.692 148.14 310.861 146.926 310.477C144.539 309.719 138.755 311.795 139.572 313.116C139.872 313.602 139.64 314 139.059 314C138.477 314 138 313.55 138 313C138 312.45 136.947 312 135.661 312C130.638 312 130.16 303.036 135.099 301.469C137.511 300.703 142 296.309 142 294.714C142 294.168 142.787 293.123 143.75 292.392C145.347 291.18 145.269 291.061 142.867 291.032C138.838 290.983 138.416 286.808 142.16 284.04C145.021 281.925 144.147 276 140.974 276C140.438 276 140 275.5 140 274.892C140 274.199 140.969 274.026 142.58 274.431C144.909 275.015 145.091 274.856 144.456 272.789C143.498 269.675 143.47 269.658 139.57 269.805C136.771 269.91 136.072 269.536 135.815 267.795C135.612 266.415 134.717 265.601 133.292 265.499C130.515 265.3 129.847 266.979 131.044 271.152C132.168 275.071 131.411 276.025 127.75 275.306C125.717 274.908 125 274.175 125 272.5C125 271.074 124.258 270.039 123 269.71C121.803 269.397 121 268.346 121 267.094C121 265.942 120.52 265 119.933 265C119.32 265 119.136 264.147 119.5 263C119.95 261.581 119.68 261 118.567 261C117.705 261 117 260.55 117 260C117 259.45 116.127 259 115.059 259C113.991 259 112.84 258.55 112.5 258C112.16 257.45 110.424 257 108.641 257C106.858 257 104.951 256.55 104.4 256C103.059 254.659 98.1797 256.934 97.4307 259.25C96.7367 261.396 95.4117 261.515 94.6387 259.501C94.0556 257.983 91.54 257.909 89.2432 259.342C88.4743 259.822 87.7528 259.52 87.3857 258.563C87.0558 257.705 86.2193 257 85.5264 257C84.8334 257 82.177 254.669 79.624 251.821C75.1881 246.871 74.9184 246.727 73.5234 248.571C72.2354 250.273 72.0602 250.3 72.0322 248.8C72.0143 247.865 72.7871 246.601 73.75 245.992C75.1329 245.116 75.2109 244.765 74.125 244.317C73.369 244.005 71.794 242.794 70.625 241.625C69.456 240.456 68.05 239.439 67.5 239.365C66.95 239.291 65.9181 239.179 65.2061 239.115C64.4951 239.052 63.9852 238.438 64.0752 237.75C64.7842 232.288 63.942 229.938 61.0693 229.364C59.4573 229.041 57.2852 227.983 56.2422 227.011C55.2002 226.04 53.3678 224.934 52.1729 224.555C49.8171 223.807 49.4251 221.943 51.0029 218.995C51.6729 217.743 51.6729 216.916 51.0029 216.502C50.451 216.161 50 214.982 50 213.882C50 212.782 49.6011 212.128 49.1143 212.43C48.6263 212.731 47.9931 212.083 47.707 210.989C47.4211 209.895 46.6653 209 46.0264 209C45.2604 209 45.1278 209.766 45.6357 211.25C47.2097 215.843 46.68 219.531 44.5 219.155C41.677 218.668 41.6849 218.697 42.9229 212.921C43.8288 208.697 43.7792 207.399 42.6562 206.102C41.8943 205.22 40.9952 202.701 40.6582 200.503C40.3212 198.305 39.3604 196.005 38.5234 195.393C36.2395 193.723 36.682 192.118 39.6309 191.378C41.5259 190.902 42.5187 191.177 43.1807 192.359C46.0127 197.419 51.9622 190.396 50.2832 183.975C49.9373 182.652 50.2654 182 51.2764 182C53.7421 182 54.3434 178.003 52.5225 173.724C51.9485 172.375 51.4456 172.215 50.4307 173.057C48.9776 174.263 45 173.44 45 171.933C44.9994 171.42 43.8747 171 42.5 171C39.6151 171 39.3218 169.413 41.6035 166.155C42.5064 164.866 42.9974 162.768 42.7266 161.354C42.1836 158.514 44.6529 156.82 46.0469 159.076C47.1389 160.842 48.5077 157.766 47.6377 155.5C47.0016 153.842 43 153.41 43 155C43 155.55 42.325 156 41.5 156C39.819 156 39.455 153.455 41 152.5C42.4989 151.574 42.204 150 40.5312 150C38.1573 150 39.884 147.255 42.584 146.739C44.7239 146.33 44.9996 146.601 44.7666 148.885C44.5336 151.171 44.909 151.539 47.75 151.813C49.8246 152.013 50.9995 151.682 51 150.897C51 150.22 50.7038 149.963 50.3418 150.325C49.2288 151.438 47.0001 148.884 47 146.494C47 144.05 43.0939 142.23 41.9209 144.128C41.5629 144.706 41.4518 142.619 41.6748 139.49C42.0958 133.546 41.0389 131.012 38.1279 130.985C35.634 130.961 33.2861 129.147 34.5879 128.25C35.5848 127.562 37.2366 123.001 36.4883 123C34.7834 123 32.6446 124.747 31.7305 126.886C30.6145 129.5 30.6142 129.5 30.2412 126.75C29.7762 123.33 28.5371 123.271 25.7021 126.535C23.6462 128.902 23.3546 128.967 21.3076 127.519C18.6113 125.609 19.8851 120 23.0137 120C24.0144 120 24.9912 119.524 25.1855 118.943C25.6985 117.403 28.9995 118.944 29 120.724C29 121.801 29.644 122.061 31.25 121.63C32.487 121.299 34.0411 121.021 34.7031 121.014C37.9201 120.976 41.0419 106.181 38.0439 105.181C37.47 104.99 37.0001 104.174 37 103.369C37 102.563 35.9252 100.908 34.6113 99.6914C32.1833 97.4404 31.7533 92.8474 33.7812 90.8193C35.3442 89.2564 39.9995 90.9928 40 93.1396C40 95.8157 42.1064 96.347 45.5664 94.542C49.3382 92.5752 51.9814 92.5918 53.4443 94.5928C54.4963 96.0308 54.9822 95.9763 58.4531 94.0273C61.9081 92.0863 62.4511 92.0233 63.8311 93.4033C65.5457 95.1174 63.1276 99 60.3447 99C59.6049 99.0001 59 99.4501 59 100C59 100.55 59.4823 101 60.0713 101C60.6613 101 61.8177 101.675 62.6426 102.5C63.4676 103.325 65.0113 104 66.0713 104C67.4351 104 68 104.696 68 106.378C68 107.685 68.675 109.315 69.5 110C71.612 111.753 71.364 114.092 69 114.71C67.9 114.998 67 115.589 67 116.025C66.9988 116.461 64.9752 118.096 62.502 119.658C58.6781 122.074 58.003 122.987 58.002 125.75C58 128.907 59.246 130.029 60.5 128C61.37 126.592 62.9978 126.755 63.0078 128.25C63.0268 131.356 67.6367 131.792 70.8447 128.992C74.5927 125.719 76.7366 121 74.4746 121C73.019 121 72.4452 118.888 73.5898 117.743C73.9148 117.418 75.9969 117.793 78.2158 118.576C83.7547 120.531 83.9674 120.453 83.4805 116.654C83.2445 114.813 83.4828 111.803 84.0098 109.965C84.7717 107.308 84.6312 106.25 83.3242 104.805C82.4194 103.806 81.9402 102.727 82.2578 102.408C82.5768 102.089 83.3401 102.767 83.9541 103.914C85.3501 106.522 89.3207 106.799 88.7637 104.25C88.5527 103.287 87.8453 102.612 87.1914 102.75C86.5364 102.887 86 102.362 86 101.582C86 100.802 85.7266 99.452 85.3926 98.582C85.0396 97.6611 85.3072 97 86.0332 97C86.7182 96.9998 87.8974 96.2129 88.6523 95.25C89.9162 93.6392 90.4019 93.9113 94.7617 98.6631C98.2627 102.478 100.203 103.817 102.191 103.788C105.252 103.745 106.857 101.059 104.582 99.7861C103.758 99.3251 103.338 98.2836 103.649 97.4736C104.386 95.5511 103.106 95.5946 100.928 97.5654C99.7811 98.603 98.977 98.771 98.54 98.0654C98.1781 97.4795 98.3529 97.0002 98.9297 97C99.5057 97 99.9529 95.988 99.9229 94.75C99.8939 93.5122 100.011 91.6494 100.185 90.6104C100.392 89.3684 99.4878 88.1487 97.5488 87.0547C93.624 84.8415 91.2063 76.4142 93.2021 71.9053C94.6651 68.6013 95.246 68.386 97 70.5C97.685 71.325 99.3151 72 100.622 72C102.587 72 103 72.5114 103 74.9414C103 76.5592 103.486 78.1828 104.081 78.5498C104.676 78.9178 104.892 80.2944 104.562 81.6094C104.087 83.503 104.357 84 105.866 84C106.913 84.0002 108.507 85.1251 109.408 86.5C110.309 87.8749 111.719 89 112.542 89C113.638 89 113.87 89.668 113.411 91.5C113.058 92.907 113.216 94 113.774 94C114.32 94.0009 116.63 95.8642 118.907 98.1416C122.613 101.849 125.967 103.076 123.166 99.7002C122.01 98.3073 123.343 96.0003 125.306 96C126.085 96 128.101 94.5572 133.708 89.9854C135.361 88.6374 136.25 88.7492 135.753 90.2422C135.004 92.4891 139.264 93.7983 141.278 91.9404C142.255 91.0384 144.88 89.753 147.11 89.085C149.902 88.249 150.997 87.4338 150.626 86.4668C150.33 85.6958 150.518 84.7976 151.044 84.4727C152.721 83.4356 152.071 80.831 150 80.29C147.245 79.569 147.261 75.0062 150.021 74.2842C151.662 73.8552 151.815 73.4817 150.835 72.3018C149.368 70.5339 151.191 69.0387 154.844 69.0146C156.338 69.0056 157.377 68.276 157.71 67C158.711 63.173 164.094 64.2822 163.319 68.1562C162.695 71.2761 162.726 71.3053 165.98 70.6543C169.272 69.9964 169.272 69.9963 168.667 74.4111C168.029 79.068 171.388 81.94 175.588 80.3281C176.597 79.9411 177.309 80.4671 177.676 81.8701C178.255 84.0851 180 84.8409 180 82.8779C180 82.087 180.431 82.1129 181.456 82.9639C183.692 84.8189 184.676 83.5109 184.75 78.5859C184.831 73.233 183.601 71.9643 177.787 71.4053C175.429 71.1783 173.358 70.5688 173.185 70.0518C173.011 69.535 172.224 69.3602 171.435 69.6631C170.646 69.9658 170 69.6887 170 69.0479C170 68.4071 169.581 68.1413 169.069 68.457C166.937 69.775 166.837 66.55 168.957 64.834C170.421 63.648 171.05 62.298 170.721 61.043C169.977 58.197 171.958 56.1681 176.5 55.1221C178.7 54.6151 180.837 54.1556 181.25 54.0996ZM222 312C223.868 310.846 224.711 311.689 223.2 313.2C222.558 313.842 221.701 314.035 221.296 313.629C220.89 313.223 221.207 312.49 222 312ZM272 310C272.55 310 273 310.675 273 311.5C273 312.325 272.55 313 272 313C271.45 313 271 312.325 271 311.5C271 310.675 271.45 310 272 310ZM206 308C206.55 308 207 308.45 207 309C207 309.55 206.55 310 206 310C205.45 310 205 309.55 205 309C205 308.45 205.45 308 206 308ZM161.92 306.85C160.934 305.007 161.054 304.88 163.164 305.53C166.226 306.472 166.356 306.63 165.631 308.52C164.913 310.391 163.466 309.74 161.92 306.85ZM230.991 307.511C232.24 306.006 234 306.327 234 308.059C234 308.577 233.045 309 231.878 309C230.111 309 229.962 308.75 230.991 307.511ZM84 308C84.733 308 85.033 308.3 84.667 308.667C84.3 309.033 83.7 309.033 83.333 308.667C82.967 308.3 83.267 308 84 308ZM265 305C265.55 305 266 305.45 266 306C266 306.55 265.55 307 265 307C264.45 307 264 306.55 264 306C264 305.45 264.45 305 265 305ZM227 306C227.733 306 228.033 306.3 227.667 306.667C227.3 307.033 226.7 307.033 226.333 306.667C225.967 306.3 226.267 306 227 306ZM237 303C238.111 303 239 303.667 239 304.5C239 305.333 238.111 306 237 306C235.889 306 235 305.333 235 304.5C235 303.667 235.889 303 237 303ZM229.5 304C229.775 304 230 304.225 230 304.5C230 304.775 229.775 305 229.5 305C229.225 305 229 304.775 229 304.5C229 304.225 229.225 304 229.5 304ZM270 303C270 302.267 270.3 301.967 270.667 302.333C271.033 302.7 271.033 303.3 270.667 303.667C270.3 304.033 270 303.733 270 303ZM195.5 301C195.225 301 195 301.225 195 301.5C195 301.775 195.225 302 195.5 302C195.775 302 196 301.775 196 301.5C196 301.225 195.775 301 195.5 301ZM119.529 293.554C122.107 291.605 122.765 291.639 123.349 293.75C124.243 296.981 123.361 300.346 121.423 301.106C118.441 302.275 117.737 302.128 118.372 300.472C118.705 299.606 118.102 298.212 116.979 297.25C114.745 295.337 114.349 293.813 116.279 294.553C116.982 294.823 118.444 294.374 119.529 293.554ZM238 299C238.55 299 239 299.45 239 300C239 300.55 238.55 301 238 301C237.45 301 237 300.55 237 300C237 299.45 237.45 299 238 299ZM151.527 295.748C152.444 292.095 150.26 292.106 147.274 295.769C145.047 298.5 145.047 298.5 147.615 298.825C150.676 299.213 150.653 299.231 151.527 295.748ZM253 298C253.733 298 254.033 298.3 253.667 298.667C253.3 299.033 252.7 299.033 252.333 298.667C251.967 298.3 252.267 298 253 298ZM156.771 296.813C156.153 294.958 154 294.651 154 296.417C154 297.288 154.713 298 155.583 298C156.454 298 156.989 297.466 156.771 296.813ZM134.18 295.25C133.829 292.777 135.804 292.204 137.8 294.2C139.796 296.196 139.223 298.171 136.75 297.82C135.304 297.614 134.386 296.696 134.18 295.25ZM131 293C131.733 293 132.033 293.3 131.667 293.667C131.3 294.033 130.7 294.033 130.333 293.667C129.967 293.3 130.267 293 131 293ZM177.722 290.011C180.1 287.235 181.191 287.495 180.816 290.75C180.59 292.719 179.861 293.591 178.25 293.82C175.563 294.201 175.364 292.766 177.722 290.011ZM138 289C138.55 289 139 289.45 139 290C139 290.55 138.55 291 138 291C137.45 291 137 290.55 137 290C137 289.45 137.45 289 138 289ZM209 289C209.55 289 210 289.45 210 290C210 290.55 209.55 291 209 291C208.45 291 208 290.55 208 290C208 289.45 208.45 289 209 289ZM133.133 287.621C135.673 284.75 137.162 286.614 135.026 289.992C134.312 291.122 133.803 291.203 132.925 290.325C132.047 289.447 132.097 288.792 133.133 287.621ZM107.938 260.317C108.953 259.549 109.847 259.476 110.492 260.109C111.146 260.752 111.066 261.341 110.257 261.841C106.198 264.35 107.676 268.674 113.402 271.048C116.481 272.324 119 273.912 119 274.577C119 275.242 119.739 276.07 120.643 276.417C121.547 276.763 122.035 277.298 121.729 277.605C121.423 277.911 120.19 277.637 118.991 276.995C117.155 276.013 116.438 276.179 114.445 278.052C112.564 279.819 111.337 280.154 108.458 279.688C105.57 279.219 105.055 279.361 105.91 280.392C106.5 281.102 106.697 281.969 106.349 282.318C106 282.667 106.304 283.661 107.022 284.526C108.112 285.84 108.042 286.381 106.603 287.8C104.979 289.4 104.801 289.397 103.579 287.75C102.864 286.788 101.818 286 101.253 286C99.6591 286 99.2253 280.413 100.667 278.441C101.376 277.471 101.693 275.624 101.37 274.338C100.94 272.625 101.206 272 102.366 272C104.255 272 107.438 266.39 106.04 265.525C104.833 264.779 105.895 261.864 107.938 260.317ZM240 283.571C240 282.728 238.73 282.927 236.75 284.08C234.814 285.208 234.397 287 236.071 287C237.196 287 239.999 284.553 240 283.571ZM125.5 285C125.775 285 126 285.225 126 285.5C126 285.775 125.775 286 125.5 286C125.225 286 125 285.775 125 285.5C125 285.225 125.225 285 125.5 285ZM184 284C184.55 284 185 284.45 185 285C185 285.55 184.55 286 184 286C183.45 286 183 285.55 183 285C183 284.45 183.45 284 184 284ZM137.122 277.278C138.026 276.374 141 276.508 141 277.453C141 278.609 137.646 284 136.927 284C135.616 283.999 135.772 278.628 137.122 277.278ZM86.2363 269C94.5931 269 98.001 276.042 91.9551 280.817C87.7461 284.142 83.9691 283.464 81.8291 279C80.2021 275.605 80.2172 275.447 82.3262 273.737C84.4662 272.002 84.4696 271.952 82.5586 270.487C80.7697 269.117 81.0604 269 86.2363 269ZM226.665 275C225.081 275 224.967 275.256 226 276.5C227.04 277.753 226.896 278 225.122 278C223.955 278 223 278.498 223 279.107C223 279.716 223.712 279.941 224.582 279.607C225.452 279.273 226.773 279 227.52 279C228.265 279 228.808 278.1 228.725 277C228.631 275.751 227.858 275 226.665 275ZM150.5 276C150.775 276 151 276.225 151 276.5C151 276.775 150.775 277 150.5 277C150.225 277 150 276.775 150 276.5C150 276.225 150.225 276 150.5 276ZM246 270C244.664 270 244 270.667 244 272.008C244 273.767 244.249 273.861 246 272.768C247.1 272.081 248 271.177 248 270.759C248 270.342 247.1 270 246 270ZM204.346 269.214C203.808 267.157 202.028 266.306 200.81 267.524C200.121 268.214 201.049 273.004 201.867 272.985C203.706 272.94 204.861 271.184 204.346 269.214ZM210 270C209.45 270 209 270.45 209 271C209 271.55 209.45 272 210 272C210.55 272 211 271.55 211 271C211 270.45 210.55 270 210 270ZM240.25 270.015C239.012 270.007 238 270.45 238 271C238 272.253 239.061 272.253 241 271C242.213 270.216 242.069 270.028 240.25 270.015ZM250.5 269C249.675 269 249 269.45 249 270C249 270.55 249.675 271 250.5 271C251.325 271 252 270.55 252 270C252 269.45 251.325 269 250.5 269ZM23.6934 263C25.4022 263 26.7685 265.168 26.2676 267.084C25.6866 269.305 24 269.675 24 267.582C24 266.802 23.7266 265.452 23.3926 264.582C23.0586 263.712 23.1944 263 23.6934 263ZM99.1855 263.055C103.758 261.221 105.754 263.683 103.096 267.878C102.061 269.513 100 268.518 100 266.382C99.9999 265.557 99.5812 265.141 99.0693 265.457C98.5573 265.774 97.8529 265.571 97.5049 265.008C97.1572 264.444 97.9129 263.565 99.1855 263.055ZM7.5 265C8.325 265 9 265.675 9 266.5C9 267.325 8.325 268 7.5 268C6.675 268 6 267.325 6 266.5C6 265.675 6.675 265 7.5 265ZM207.378 264C207.17 264 207 264.675 207 265.5C207 266.325 207.73 267 208.622 267C209.951 267 210.02 266.729 209 265.5C208.315 264.675 207.585 264 207.378 264ZM117.5 265C117.775 265 118 265.225 118 265.5C118 265.775 117.775 266 117.5 266C117.225 266 117 265.775 117 265.5C117 265.225 117.225 265 117.5 265ZM236 215.2C236 213.555 234.449 213.694 232.643 215.5C231.818 216.325 230.462 217 229.63 217C228.799 217 227.84 217.45 227.5 218C227.16 218.55 227.359 219 227.941 219C228.523 219 229 219.45 229 220C229 220.55 228.325 221 227.5 221C225.51 221 225.558 224.893 227.557 225.66C228.414 225.989 228.865 226.908 228.56 227.703C227.577 230.265 230.833 232.611 232.399 230.469C233.119 229.484 234.217 229.016 234.866 229.417C235.704 229.935 235.444 230.972 233.95 233.07C231.696 236.235 228.727 237.039 229.206 234.354C229.751 231.3 227.39 231.933 225.939 235.23C224.919 237.547 223.626 238.684 221.5 239.132C219.85 239.479 219.261 239.817 220.191 239.882C223.053 240.082 223.419 242.175 220.922 244.059C218.19 246.119 216.66 245.646 217.5 243C217.82 241.993 217.645 240.9 217.113 240.57C216.58 240.24 215.856 240.877 215.505 241.985C215.153 243.093 214.413 244 213.861 244C213.309 244 212.178 244.679 211.348 245.509C210.518 246.339 209.399 246.747 208.863 246.415C203.151 242.885 202.7 252.121 208.382 256.259C211.294 258.381 211.424 258.247 210.025 254.565C209.391 252.898 209.391 252 210.025 252C210.561 252 211 251.1 211 250C211 247.82 211.737 247.548 213.911 248.924C214.779 249.473 216.019 249.381 217.136 248.683C219.684 247.092 221.592 249.025 220.144 251.731C219.571 252.801 219.329 254.539 219.604 255.593C219.896 256.711 219.249 258.429 218.053 259.713C215.653 262.289 215.412 263.44 217.435 262.663C218.225 262.36 219.012 262.526 219.185 263.031C219.358 263.536 220.507 263.684 221.739 263.361C222.97 263.037 223.737 262.383 223.443 261.907C222.261 259.995 226.807 254 229.438 254C230.762 254 230.817 253.679 229.778 252.016C228.749 250.368 228.832 249.739 230.27 248.302C231.909 246.661 232 246.688 232 248.809C232 250.965 232.09 250.987 234.5 249.408C238.116 247.038 237.826 244.11 233.986 244.219C230.415 244.321 230.126 244.1 229.772 241.005C229.531 238.906 229.93 238.616 233.25 238.478C236.084 238.36 237 238.712 237 239.92C237 240.8 237.9 242.081 239 242.768C240.1 243.455 241 244.726 241 245.592C241 246.496 241.532 246.918 242.25 246.584C242.938 246.263 244.288 245.724 245.25 245.384C247.77 244.495 247.539 241.626 245.001 242.289C241.564 243.188 239.802 234.829 242.915 232.393C244.518 231.137 245.251 221.001 243.739 221C243.215 221 243.045 220.325 243.362 219.5C243.705 218.606 243.371 218 242.536 218C241.765 218 240.849 217.1 240.5 216C239.772 213.706 238.904 213.496 237.2 215.2C236.267 216.133 236 216.133 236 215.2ZM124.5 262C124.225 262 124 262.225 124 262.5C124 262.775 124.225 263 124.5 263C124.775 263 125 262.775 125 262.5C125 262.225 124.775 262 124.5 262ZM26.6074 257.581C27.2884 255.807 27.9182 255.661 29.7891 256.848C30.7751 257.474 30.825 258.331 30 260.5C28.933 263.307 28.9079 263.314 27.4609 261.248C26.6579 260.101 26.2734 258.451 26.6074 257.581ZM258.5 260C258.984 259.217 259.559 259.159 260.226 259.826C260.776 260.376 260.899 261.354 260.5 262C260.016 262.783 259.441 262.841 258.774 262.174C258.224 261.624 258.101 260.646 258.5 260ZM15.5 260C15.775 260 16 260.225 16 260.5C16 260.775 15.775 261 15.5 261C15.225 261 15 260.775 15 260.5C15 260.225 15.225 260 15.5 260ZM133.583 257C132.713 257 132 257.712 132 258.583C132 260.349 134.153 260.042 134.771 258.188C134.989 257.534 134.454 257 133.583 257ZM180 256.878C180 255.842 178.616 255.717 177.667 256.667C176.169 258.164 176.932 260.301 178.5 259C179.325 258.315 180 257.36 180 256.878ZM131.909 248.222C128.833 248.309 128.396 248.757 127.809 252.428C127.405 254.948 122.531 256.345 120.919 254.402C119.328 252.485 118.327 252.643 117.735 254.904C117.316 256.507 117.957 256.916 121.775 257.489C127.475 258.344 134.288 255.568 133.41 252.75C133.111 251.788 133.346 251 133.933 251C134.52 251 135 250.355 135 249.567C135 248.613 133.967 248.163 131.909 248.222ZM115.059 253C113.879 253 112.617 254.95 113.333 255.667C114.05 256.383 116 255.121 116 253.941C116 253.423 115.577 253 115.059 253ZM129.5 254C129.775 254 130 254.225 130 254.5C130 254.775 129.775 255 129.5 255C129.225 255 129 254.775 129 254.5C129 254.225 129.225 254 129.5 254ZM90.9512 246.441C89.5652 244.771 87.392 244.556 86.5 246C86.16 246.55 86.5844 247 87.4414 247C89.429 247 89.4689 248.606 87.5 249.362C85.8631 249.99 85.5824 251.794 86.8193 253.742C87.4253 254.696 88.5142 254.522 91.5156 252.992C93.6646 251.896 96.0398 251 96.7949 251C99.2419 251 97.426 248.51 94.7461 248.191C93.3163 248.02 91.6084 247.233 90.9512 246.441ZM223.748 248.538C224.16 246.384 224.401 246.258 225.673 247.53C227.255 249.112 226.66 251 224.58 251C223.735 251 223.443 250.135 223.748 248.538ZM256.25 240.1C253.009 240.186 252.839 240.297 255 240.916C256.498 241.345 257.393 242.26 257.234 243.196C257.083 244.088 257.888 244.999 259.114 245.32C260.514 245.686 261.059 246.405 260.681 247.389C260.053 249.024 263.239 250.589 264.991 249.506C267.247 248.111 263.997 242 261 242C260.45 242 260 241.55 260 241C260 240.45 258.313 240.045 256.25 240.1ZM207 248C207.55 248 208 248.198 208 248.441C208 248.685 207.55 249.16 207 249.5C206.45 249.84 206 249.641 206 249.059C206 248.477 206.45 248 207 248ZM80 243.5C80 239.91 77.9911 242.202 76.9531 246.975C76.8961 247.236 77.3339 247.611 77.9258 247.809C78.5428 248.014 78.7416 247.492 78.3936 246.584C78.0587 245.713 78.2839 245 78.8926 245C79.5016 245 80 244.325 80 243.5ZM101.5 246C101.225 246 101 246.225 101 246.5C101 246.775 101.225 247 101.5 247C101.775 247 102 246.775 102 246.5C102 246.225 101.775 246 101.5 246ZM316 244C316.55 244 317 244.675 317 245.5C317 246.325 316.55 247 316 247C315.45 247 315 246.325 315 245.5C315 244.675 315.45 244 316 244ZM225.941 242C226.459 242 227.16 242.45 227.5 243C227.84 243.55 227.416 244 226.559 244C225.702 244 225 243.55 225 243C225 242.45 225.423 242 225.941 242ZM87.1074 239C85.0245 239 83.5189 241.585 85.0508 242.532C85.9587 243.092 88.9995 240.812 89 239.571C89 239.257 88.1482 239 87.1074 239ZM34.5 240C35.325 240 36 240.45 36 241C36 241.55 35.325 242 34.5 242C33.675 242 33 241.55 33 241C33 240.45 33.675 240 34.5 240ZM272.75 238.63C269.473 237.752 268 237.867 268 239C268 239.516 268.989 239.944 270.245 239.995L270.755 240.005C272.011 240.056 273 240.484 273 241C273 241.55 273.45 242 274 242C275.98 242 274.949 239.22 272.75 238.63ZM81.9854 237.75C82.0063 236.726 80.8009 236.833 79 238.015C77.682 238.881 77.6788 239.115 78.9736 239.947C80.3776 240.85 81.9454 239.706 81.9854 237.75ZM262 238C261.45 238 261 238.45 261 239C261 239.55 261.45 240 262 240C262.55 240 263 239.55 263 239C263 238.45 262.55 238 262 238ZM311 238C310.45 238 310 238.45 310 239C310 239.55 310.45 240 311 240C311.55 240 312 239.55 312 239C312 238.45 311.55 238 311 238ZM49.3926 236C51.0886 236 52.2871 238.704 50.9561 239.527C49.6402 240.341 48.0002 239.184 48 237.441C48 236.649 48.6268 236 49.3926 236ZM211.5 235.638C210.586 235.288 210 235.637 210 236.531C210 237.339 210.675 238 211.5 238C212.325 238 213 237.598 213 237.107C213 236.616 212.325 235.955 211.5 235.638ZM295.5 236C295.225 236 295 236.225 295 236.5C295 236.775 295.225 237 295.5 237C295.775 237 296 236.775 296 236.5C296 236.225 295.775 236 295.5 236ZM196.136 231.736C195.375 230.975 194.886 231.134 194.444 232.285C193.504 234.735 195.048 236.665 196.242 234.532C196.881 233.39 196.845 232.445 196.136 231.736ZM223.971 225.698C222.17 224.128 216.79 224.21 215.167 225.833C214.181 226.819 212.842 227.447 212.188 227.229C210.261 226.587 210.823 230.894 212.965 233.193C214.651 235.003 215.163 235.11 216.562 233.948C218.061 232.705 218.043 232.528 216.347 231.782C215.017 231.197 215.247 231.113 217.171 231.484C220.774 232.178 223.259 231.118 222.524 229.201C222.198 228.353 222.497 227.311 223.188 226.884C223.877 226.458 224.23 225.924 223.971 225.698ZM69 232C68.45 232 68 232.45 68 233C68 233.55 68.45 234 69 234C69.55 234 70 233.55 70 233C70 232.45 69.55 232 69 232ZM240.5 228C240.775 228 241 228.225 241 228.5C241 228.775 240.775 229 240.5 229C240.225 229 240 228.775 240 228.5C240 228.225 240.225 228 240.5 228ZM196.107 225C195.093 225 193.712 228.046 194.41 228.743C195.205 229.538 197 227.942 197 226.441C197 225.649 196.598 225 196.107 225ZM255 227C254.267 227 253.967 227.3 254.333 227.667C254.7 228.033 255.3 228.033 255.667 227.667C256.033 227.3 255.733 227 255 227ZM223.295 217.75C222.674 214.514 219.607 213.997 218.071 216.868C217.521 217.895 215.705 219.009 214.036 219.343C211.854 219.779 211 220.52 211 221.975C211 223.156 210.34 224 209.417 224C208.546 224 208.011 224.534 208.229 225.188C208.948 227.34 210.634 227.094 213.277 224.45C214.919 222.808 217.212 221.738 219.472 221.559C223.883 221.209 223.947 221.144 223.295 217.75ZM205.667 224.333C205.3 223.967 205 224.267 205 225C205 225.733 205.3 226.033 205.667 225.667C206.033 225.3 206.033 224.7 205.667 224.333ZM237.5 224C237.775 224 238 224.225 238 224.5C238 224.775 237.775 225 237.5 225C237.225 225 237 224.775 237 224.5C237 224.225 237.225 224 237.5 224ZM228.6 222.838C228.948 222.275 229.689 222.327 230.462 222.969C231.169 223.555 232.479 223.754 233.373 223.41C234.272 223.065 235 223.282 235 223.893C235 225.127 233.602 225.268 230.261 224.373C229.03 224.043 228.282 223.352 228.6 222.838ZM235.5 218C235.775 218 236 218.225 236 218.5C236 218.775 235.775 219 235.5 219C235.225 219 235 218.775 235 218.5C235 218.225 235.225 218 235.5 218ZM60.4951 206.352C57.8702 202.346 54.9907 204.237 55.0146 209.95C55.0347 214.555 55.7904 215.454 59.8594 215.718C61.7073 215.838 63.8454 216.456 64.6094 217.091C65.6653 217.967 66.361 217.945 67.5 217C69.957 214.961 69.2206 212.574 65.5176 210.58C63.6026 209.549 61.3431 207.645 60.4951 206.352ZM213.5 214C212.675 214 212 214.436 212 214.969C212 215.501 212.675 215.678 213.5 215.362C214.325 215.045 215 214.609 215 214.393C214.999 214.177 214.324 214 213.5 214ZM227.941 213C226.873 213 226 213.45 226 214C226 214.55 227.152 215 228.559 215C230.01 215 230.851 214.567 230.5 214C230.16 213.45 229.009 213 227.941 213ZM210.615 205C208.676 205 208.212 205.388 208.683 206.615C209.176 207.9 208.862 208.091 207.151 207.548C205.969 207.172 205.007 207.233 205.015 207.683C205.072 210.718 210.4 212.066 211.373 209.291C211.719 208.306 212.263 206.938 212.584 206.25C212.969 205.424 212.3 205 210.615 205ZM201 207C200.45 207 200 207.702 200 208.559C200 209.416 200.45 209.84 201 209.5C201.55 209.16 202 208.459 202 207.941C202 207.423 201.55 207 201 207ZM47 204C46.45 204 46 204.648 46 205.441C46.0001 206.234 46.4501 207.16 47 207.5C47.55 207.84 48 207.191 48 206.059C47.9999 204.927 47.5499 204 47 204ZM272.5 206C272.225 206 272 206.225 272 206.5C272 206.775 272.225 207 272.5 207C272.775 207 273 206.775 273 206.5C273 206.225 272.775 206 272.5 206ZM305.5 203C305.775 203 306 203.225 306 203.5C306 203.775 305.775 204 305.5 204C305.225 204 305 203.775 305 203.5C305 203.225 305.225 203 305.5 203ZM315.345 200.543C316.092 198.596 318 198.522 318 200.441C318 202.034 316.185 203.519 315.31 202.643C315.004 202.336 315.019 201.392 315.345 200.543ZM212 200C211.45 200 211 200.45 211 201C211 201.55 211.45 202 212 202C212.55 202 213 201.55 213 201C213 200.45 212.55 200 212 200ZM17.0938 195C17.5917 195 18 195.9 18 197C18 198.1 17.8271 198.999 17.6172 199C17.4062 199 16.998 198.1 16.71 197C16.423 195.9 16.5949 195 17.0938 195ZM279.25 190.083C278.11 190.21 274.765 194.098 275.319 194.653C276.113 195.444 280 192.627 280 191.259C280 190.567 279.663 190.037 279.25 190.083ZM21.417 193.079C22.471 193.036 23.0605 193.272 22.7285 193.604C22.3962 193.936 21.5341 193.971 20.8135 193.683C20.0155 193.364 20.252 193.127 21.417 193.079ZM60.667 192.333C60.3 191.967 60 192.267 60 193C60 193.733 60.3 194.033 60.667 193.667C61.033 193.3 61.033 192.7 60.667 192.333ZM56.8574 189.89C54.9964 188.711 53 188.784 53 190.031C53.0003 191.422 55.6256 192.349 57.0586 191.464C57.9006 190.943 57.8473 190.518 56.8574 189.89ZM17.9648 186.542C19.8498 184.271 21.2373 184.667 20.4434 187.25C19.5084 190.292 19.1572 190.557 17.8262 189.226C16.9713 188.371 17.0059 187.698 17.9648 186.542ZM303.665 164.733C303.959 164.258 305.043 164.634 306.076 165.569C307.108 166.503 307.709 167.66 307.412 168.143C306.316 169.915 308.149 172.821 310.78 173.481C314.595 174.438 316.141 175.98 315.455 178.141C315.124 179.186 315.348 180 315.968 180C316.76 180 316.77 180.562 316 182C315.411 183.1 314.262 184 313.446 184C312.362 184 312.131 184.675 312.589 186.5C313.231 189.057 312.499 189.512 309.558 188.384C308.331 187.913 308.103 186.969 308.588 184.384C308.937 182.523 308.832 181.001 308.355 181C307.319 181 305.006 173.976 304.985 170.766C304.976 169.52 304.556 167.846 304.051 167.048C303.545 166.249 303.372 165.207 303.665 164.733ZM23.5 187C23.775 187 24 187.225 24 187.5C24 187.775 23.775 188 23.5 188C23.225 188 23 187.775 23 187.5C23 187.225 23.225 187 23.5 187ZM281 182.219C277.951 182.132 276.741 184.303 279.292 185.282C280.493 185.743 284 183.888 284 182.792C284 182.524 282.65 182.266 281 182.219ZM23.25 182.496C25.015 180.491 26 180.672 26 183C26 184.333 25.333 185 24 185C21.679 185 21.518 184.463 23.25 182.496ZM46.4414 183C47.2982 183 48 183.45 48 184C48 184.55 47.5766 185 47.0586 185C46.5406 185 45.8399 184.55 45.5 184C45.16 183.45 45.5844 183 46.4414 183ZM281 177C280.45 177 280 177.45 280 178C280 178.55 280.45 179 281 179C281.55 179 282 178.55 282 178C282 177.45 281.55 177 281 177ZM51.5 175C51.775 175 52 175.225 52 175.5C52 175.775 51.775 176 51.5 176C51.225 176 51 175.775 51 175.5C51 175.225 51.225 175 51.5 175ZM25.5 174C25.775 174 26 174.225 26 174.5C26 174.775 25.775 175 25.5 175C25.225 175 25 174.775 25 174.5C25 174.225 25.225 174 25.5 174ZM34.4414 172C34.6845 172.001 35.1602 172.45 35.5 173C35.84 173.55 35.6406 174 35.0586 174C34.4768 174 34 173.55 34 173C34 172.45 34.1984 172 34.4414 172ZM27.9414 170C28.4594 170 29.1601 170.45 29.5 171C29.84 171.55 29.4156 172 28.5586 172C27.7018 172 27 171.55 27 171C27 170.45 27.4234 170 27.9414 170ZM9 168C9.55 168 10 168.45 10 169C10 169.55 9.55 170 9 170C8.45 170 8 169.55 8 169C8 168.45 8.45 168 9 168ZM8.5 165C9.325 165 10 165.45 10 166C10 166.55 9.325 167 8.5 167C7.675 167 7 166.55 7 166C7 165.45 7.675 165 8.5 165ZM313 165C313.55 165 314 165.45 314 166C314 166.55 313.55 167 313 167C312.45 167 312 166.55 312 166C312 165.45 312.45 165 313 165ZM17 164C17.55 164 18 164.45 18 165C18 165.55 17.55 166 17 166C16.45 166 16 165.55 16 165C16 164.45 16.45 164 17 164ZM294 164C293.267 164 292.967 164.3 293.333 164.667C293.7 165.033 294.3 165.033 294.667 164.667C295.033 164.3 294.733 164 294 164ZM20.9414 160C22.0732 160 23 160.45 23 161C23 161.55 22.3516 162 21.5586 162C20.7657 162 19.8399 161.55 19.5 161C19.16 160.45 19.8094 160 20.9414 160ZM0 152.346C0.000621149 151.523 2.64517 152.173 4.25 153.392C6.375 155.005 6.52985 157.582 4.54785 158.343C3.37481 158.793 0 154.343 0 152.346ZM249.644 145.485C250.344 143.66 249.085 143.62 246.75 145.392C244.481 147.115 244.541 148.228 247 150C249.372 151.709 249.587 153 247.5 153C246.667 153 246 153.889 246 155C246 156.1 246.413 157 246.918 157C247.423 157 248.503 157.256 249.319 157.569C250.177 157.898 250.776 157.582 250.743 156.819C250.489 151.038 250.985 150 254 150C255.65 150 257 149.498 257 148.883C257 148.231 256.101 148.002 254.838 148.332C251.999 149.075 248.915 147.384 249.644 145.485ZM270.316 155.005C271.312 154.105 268.163 153.255 265.75 153.772C264.788 153.978 264 154.797 264 155.592C264 157.068 268.494 156.65 270.316 155.005ZM292.611 128.136C288.265 128.669 287 129.319 287 131.02C287 132.054 286.383 133.26 285.63 133.7C284.876 134.14 284.313 135.597 284.38 136.937C284.464 138.655 283.86 139.54 282.329 139.937C276.214 141.522 274.875 150 280.741 150C282.71 150 283 149.486 283 146C283 141.831 284.796 140.505 285.71 144C285.998 145.1 286.973 146 287.876 146C289.63 146 292.381 142.425 291.6 141.162C291.343 140.745 291.507 139.798 291.965 139.057C293.248 136.981 296 138.627 296 141.469C296 142.861 296.45 144 297 144C298.953 144 297.961 139.107 295.389 136.05C293.601 133.926 292.926 132.166 293.25 130.473C293.531 129.003 293.272 128.055 292.611 128.136ZM35.667 144.667C36.6219 143.711 37.9996 143.845 38 144.893C38 145.384 37.325 146.045 36.5 146.362C34.9761 146.947 34.452 145.881 35.667 144.667ZM274.2 140.2C275.711 138.689 274.868 137.846 273 139C272.207 139.49 271.89 140.223 272.296 140.629C272.701 141.035 273.558 140.842 274.2 140.2ZM198.417 136.643C197.639 134.617 196 134.48 196 136.441C196 137.942 197.795 139.538 198.59 138.743C198.841 138.492 198.763 137.547 198.417 136.643ZM225.416 134.606C224.443 134.233 223.986 134.456 224.229 135.187C224.727 136.681 227 137.505 227 136.19C227 135.653 226.287 134.941 225.416 134.606ZM272.559 133C269.64 133 268.369 134.544 270.588 135.395C273.262 136.421 275 136.069 275 134.5C275 133.576 274.062 133 272.559 133ZM266.308 133.068C265.781 131.056 263.63 129.703 262.598 130.736C261.453 131.882 262.01 135.067 263.452 135.62C265.582 136.437 266.883 135.274 266.308 133.068ZM37 134C37 133.267 37.3 132.967 37.667 133.333C38.033 133.7 38.033 134.3 37.667 134.667C37.3 135.033 37 134.733 37 134ZM51.5 125C51.225 125 51 125.225 51 125.5C51 125.775 51.225 126 51.5 126C51.775 126 52 125.775 52 125.5C52 125.225 51.775 125 51.5 125ZM70.667 122.667C71.5779 121.755 73.9996 121.823 74 122.759C74 123.177 73.0999 124.081 72 124.768C69.994 126.021 68.953 124.38 70.667 122.667ZM70 119C70.55 119 71 119.45 71 120C71 120.55 70.55 121 70 121C69.45 121 69 120.55 69 120C69 119.45 69.45 119 70 119ZM282.5 118C282.775 118 283 118.225 283 118.5C283 118.775 282.775 119 282.5 119C282.225 119 282 118.775 282 118.5C282 118.225 282.225 118 282.5 118ZM245 115C244.45 115 244 115.423 244 115.941C244 116.459 244.45 117.16 245 117.5C245.55 117.84 246 117.416 246 116.559C246 115.702 245.55 115 245 115ZM197.93 112.416C196.387 110.557 195.357 110.627 194.583 112.643C193.748 114.819 194.398 115.326 196.977 114.507C198.68 113.967 198.871 113.549 197.93 112.416ZM291.464 91.0586C292.954 88.6479 295 90.0314 295 93.4482C295 95.7411 295.838 97.8008 297.5 99.5947C298.875 101.078 300 103.132 300 104.16C300 105.187 300.555 106.914 301.23 107.997C302.237 109.609 302.177 110.251 300.904 111.525C299.01 113.418 294.001 111.967 294 109.525C294 107.508 292.788 107.601 289.885 109.84C287.949 111.334 281.838 114 280.351 114C279.037 114 280.382 112.133 282 111.71C283.1 111.423 284 110.687 284 110.075C284 109.403 283.059 109.198 281.628 109.557C275.858 111.005 277.121 103.94 282.977 102.008C287.447 100.532 287.858 98.5 283.685 98.5C280.879 98.4999 280.662 97.8358 282.296 94.25C283.309 92.027 284.444 91.6172 288.654 91.9482C289.839 92.0421 291.104 91.6415 291.464 91.0586ZM204.787 110.862C204.449 109.846 204.213 109.846 203.583 110.866C202.749 112.215 203.589 113.746 204.604 112.729C204.936 112.398 205.019 111.557 204.787 110.862ZM49.7715 110.813C49.1535 108.958 47 108.651 47 110.417C47 111.287 47.712 112 48.583 112C49.4537 112 49.989 111.466 49.7715 110.813ZM241 110C240.45 110 240 110.45 240 111C240 111.55 240.45 112 241 112C241.55 112 242 111.55 242 111C242 110.45 241.55 110 241 110ZM77.5 109C78.325 109 79 109.45 79 110C79 110.55 78.325 111 77.5 111C76.675 111 76 110.55 76 110C76 109.45 76.675 109 77.5 109ZM223.672 106.143C222.519 105.186 222.132 105.386 221.662 107.185C220.902 110.092 221.668 110.761 223.574 108.855C224.892 107.536 224.906 107.167 223.672 106.143ZM82 107C82.55 107 83 107.45 83 108C83 108.55 82.55 109 82 109C81.45 109 81 108.55 81 108C81 107.45 81.45 107 82 107ZM104.5 107C103.675 107 103 107.45 103 108C103 108.55 103.675 109 104.5 109C105.325 109 106 108.55 106 108C106 107.45 105.325 107 104.5 107ZM227.5 108C227.225 108 227 108.225 227 108.5C227 108.775 227.225 109 227.5 109C227.775 109 228 108.775 228 108.5C228 108.225 227.775 108 227.5 108ZM72.5 106C72.775 106 73 106.225 73 106.5C73 106.775 72.775 107 72.5 107C72.225 107 72 106.775 72 106.5C72 106.225 72.225 106 72.5 106ZM133 105.66C133 104.371 126.945 99.28 126.421 100.128C126.095 100.656 126.324 101.686 126.931 102.417C127.538 103.148 127.734 104.531 127.366 105.49C126.808 106.942 127.014 107.069 128.598 106.251C129.644 105.712 131.063 105.472 131.75 105.718C132.438 105.965 133 105.939 133 105.66ZM107.5 105C107.225 105 107 105.225 107 105.5C107 105.775 107.225 106 107.5 106C107.775 106 108 105.775 108 105.5C108 105.225 107.775 105 107.5 105ZM112 103C111.45 103 111 103.702 111 104.559C111 105.416 111.45 105.84 112 105.5C112.55 105.16 113 104.459 113 103.941C113 103.423 112.55 103 112 103ZM262.5 104C262.225 104 262 104.225 262 104.5C262 104.775 262.225 105 262.5 105C262.775 105 263 104.775 263 104.5C263 104.225 262.775 104 262.5 104ZM80 102C80.55 102 81 102.423 81 102.941C80.9998 103.459 80.5499 104.16 80 104.5C79.45 104.84 79 104.416 79 103.559C79.0001 102.702 79.4501 102 80 102ZM121 103C120.267 103 119.967 103.3 120.333 103.667C120.7 104.033 121.3 104.033 121.667 103.667C122.033 103.3 121.733 103 121 103ZM74 101C74.5499 101 74.9999 101.702 75 102.559C75 103.416 74.55 103.84 74 103.5C73.4501 103.16 73.0002 102.459 73 101.941C73 101.423 73.45 101 74 101ZM70.0928 98.8271C70.7167 97.6613 71.5596 97.1604 72.0596 97.6602C73.3116 98.9122 72.0278 103 70.3828 103C68.718 103 68.6189 101.581 70.0928 98.8271ZM168.326 96.8623C169.127 93.7964 166.533 94.749 165.319 97.9668C164.48 100.188 164.488 100.879 165.349 100.717C165.982 100.598 166.387 101.063 166.25 101.75C166.113 102.438 166.675 103 167.5 103C168.325 103 169 102.583 169 102.073C169 101.564 169.787 100.936 170.75 100.679C172.209 100.29 172.112 100.088 170.169 99.4678C168.532 98.9458 167.984 98.1711 168.326 96.8623ZM243.079 100.583C243.036 99.529 243.272 98.9395 243.604 99.2715C243.936 99.6038 243.971 100.467 243.683 101.188C243.364 101.985 243.127 101.748 243.079 100.583ZM20.0938 96C21.1418 96 22 96.45 22 97C22 97.55 22.7709 98 23.7139 98C25.2559 98 25.2736 98.1541 23.8916 99.5371C22.0326 101.395 19.3844 100.577 18.6924 97.9307C18.3245 96.5219 18.702 96.0001 20.0938 96ZM28 99C28.733 99 29.033 99.3 28.667 99.667C28.3 100.033 27.7 100.033 27.333 99.667C26.967 99.3 27.267 99 28 99ZM82.75 81.0801C84.9359 79.8071 85.9999 79.742 86 80.8828C86 81.3688 86.9039 82.003 88.0098 82.292C89.7198 82.74 89.8732 83.2042 89.0352 85.4092C88.2373 87.5059 88.345 87.9999 89.5977 88C91.9295 88 90.8261 91.4927 88.4814 91.5371C87.3905 91.5581 85.9361 91.9217 85.249 92.3457C83.6781 93.3166 82.0002 92.3331 82 90.4414C82 89.6484 81.325 89 80.5 89C79.675 89 79 88.55 79 88C79 87.45 79.45 87 80 87C80.55 87 81 85.8968 81 84.5498C81.0001 83.2019 81.7871 81.6411 82.75 81.0801ZM94.5 91C94.775 91 95 91.225 95 91.5C95 91.775 94.775 92 94.5 92C94.225 92 94 91.775 94 91.5C94 91.225 94.225 91 94.5 91ZM256 88C255.45 88 255 88.4234 255 88.9414C255 89.4594 255.45 90.1601 256 90.5C256.55 90.84 257 90.4156 257 89.5586C257 88.7018 256.55 88 256 88ZM219.283 86.083C219.127 85.854 219 86.137 219 86.7109C219 87.2849 219.788 88.3729 220.75 89.1279C222.369 90.3969 222.39 90.3499 221.033 88.5C220.226 87.4002 219.439 86.3132 219.283 86.083ZM140 87.4414C140 86.5844 140.45 86.16 141 86.5C141.55 86.8399 142 87.5406 142 88.0586C142 88.5766 141.55 89 141 89C140.45 89 140 88.2982 140 87.4414ZM122.58 81.8711C123.465 80.4381 127.214 80.8843 129.171 82.6553C131.662 84.9092 131.475 85.6761 128.283 86.2861C125.478 86.8221 121.448 83.7021 122.58 81.8711ZM215 84C214.267 84 213.967 84.3 214.333 84.667C214.7 85.033 215.3 85.033 215.667 84.667C216.033 84.3 215.733 84 215 84ZM56.0664 77C57.5079 77.001 56.8115 82.2433 55.3047 82.7383C54.351 83.0502 54.0489 79.0858 54.8857 77.25C54.9487 77.113 55.4804 77 56.0664 77ZM138 72C138.55 72 139 72.638 139 73.417C139 74.196 139.464 74.9878 140.031 75.1768C141.265 75.5882 139.294 82 137.934 82C137.455 81.9996 137.322 81.3247 137.638 80.5C138.038 79.4591 137.569 79.0001 136.107 79C134.901 79 134 78.359 134 77.5C134 76.675 133.55 76 133 76C132.45 76 132 75.55 132 75C132 74.4844 132.989 74.0564 134.245 74.0049L134.755 73.9951C136.011 73.9436 137 73.5156 137 73C137 72.45 137.45 72 138 72ZM74 71C74.55 71 75 71.45 75 72C75 72.55 75.675 73 76.5 73C77.325 73 78 73.675 78 74.5C78 75.3249 77.5831 75.9998 77.0732 76C76.5642 76 75.9357 76.787 75.6787 77.75C75.2837 79.2319 75.1012 79.1559 74.4893 77.25C73.5993 74.4761 72.8443 74.4192 71.2324 77C69.4884 79.792 66.7717 79.624 67.1797 76.75C67.4087 75.139 68.281 74.4096 70.25 74.1836C71.824 74.0016 73 73.2536 73 72.4336C73.0002 71.6448 73.4501 71 74 71ZM42.2168 72.2061C41.6948 70.5691 46.7521 71.6208 49.0791 73.6338C49.9471 74.3848 51.1851 75 51.8291 75C53.39 75 53.3062 75.8373 51.5713 77.5713C49.6554 79.4882 48.2532 79.372 47.5771 77.2412C47.2692 76.2743 46.0311 75.0363 44.8242 74.4912C43.6172 73.9462 42.4438 72.9181 42.2168 72.2061ZM121 76.4336C121.001 75.267 123.499 75.1115 128.872 75.9424C129.077 75.9746 128.747 76.5982 128.141 77.3301C126.753 79.0008 121 78.2795 121 76.4336ZM60.7363 70.5977C63.4202 67.9134 66.0477 72.1852 63.4658 75.0371C61.3599 77.365 59 77.61 59 75.5C59 74.675 59.4984 74 60.1074 74C60.7161 73.9997 60.9717 73.3685 60.6758 72.5977C60.3799 71.8267 60.4074 70.9266 60.7363 70.5977ZM134.5 70C134.775 70 135 70.225 135 70.5C135 70.775 134.775 71 134.5 71C134.225 71 134 70.775 134 70.5C134 70.225 134.225 70 134.5 70ZM120 63.5C120 60.5401 121.998 60.2352 124.351 62.835C125.72 64.3479 125.817 65.225 124.908 67.835C123.588 71.621 122 71.985 122 68.5C122 67.2106 121.604 66.1409 121.102 66.0127L120.898 65.9873C120.396 65.8591 120 64.7894 120 63.5ZM127.419 62.1309C128.085 61.053 130.564 61.5864 132.75 63.2783C134.908 64.9473 134.114 66.0646 131.25 65.3896C127.857 64.5897 126.574 63.4978 127.419 62.1309ZM117.5 63C117.775 63 118 63.225 118 63.5C118 63.775 117.775 64 117.5 64C117.225 64 117 63.775 117 63.5C117 63.225 117.225 63 117.5 63ZM72.5 61C72.775 61 73 61.225 73 61.5C73 61.775 72.775 62 72.5 62C72.225 62 72 61.775 72 61.5C72 61.225 72.225 61 72.5 61ZM86.5 56C86.775 56 87 56.225 87 56.5C87 56.775 86.775 57 86.5 57C86.225 57 86 56.775 86 56.5C86 56.225 86.225 56 86.5 56ZM90 55C90.733 55 91.033 55.3 90.667 55.667C90.3 56.033 89.7 56.033 89.333 55.667C88.967 55.3 89.267 55 90 55ZM86.6074 48C86.8232 48.0009 87 48.6755 87 49.5C87 50.3249 86.5641 50.9998 86.0312 51C85.4993 51 85.3217 50.325 85.6377 49.5C85.9547 48.675 86.3914 48 86.6074 48ZM100.031 43C101.115 43.0001 102 43.6751 102 44.5C102 45.3248 101.373 45.9997 100.607 46C99.8414 46 98.9547 45.325 98.6377 44.5C98.2468 43.4801 98.6923 43 100.031 43ZM81.25 38.7178C81.9379 38.4718 82.8445 38.4653 83.2656 38.7041C84.4075 39.351 83.0972 40.9997 81.4414 41C79.6724 41 79.532 39.3338 81.25 38.7178ZM84.9414 36C85.5232 36.0002 86 36.4501 86 37C86 37.55 85.8016 38 85.5586 38C85.3155 37.9995 84.8398 37.5497 84.5 37C84.16 36.45 84.3594 36 84.9414 36ZM76.6387 31.6943C76.9906 31.3424 77.6467 31.2819 78.0957 31.5586C79.1047 32.1826 78.1196 35 76.8926 35C75.8671 34.9993 75.6862 32.6474 76.6387 31.6943ZM88.5449 14.5908C91.3869 12.5119 94.458 14.2943 92.749 17.0303C91.2951 19.3581 91.0865 19.3797 88.5586 17.4678C86.643 16.0191 86.643 15.9817 88.5449 14.5908ZM82.4414 6C83.2982 6.00014 84 6.45009 84 7C84 7.55 83.5766 8 83.0586 8C82.5406 7.99976 81.8399 7.54985 81.5 7C81.16 6.45 81.5844 6 82.4414 6ZM86 0C86.55 0 87 0.45 87 1C87 1.55 86.55 2 86 2C85.45 2 85 1.55 85 1C85 0.45 85.45 0 86 0Z" fill="#D1A7FF"/>
</g>
<path id="stroke0_236_228_ref" d="M30.2665 6.71919C23.8575 9.32053 9.15146 16.6081 3.32416 19.786C1.09907 20.9994 15.8624 20.4642 22.2614 19.9138C26.3385 19.5631 29.0445 19.3008 32.0055 19.5417C32.8326 19.609 33.7723 19.405 32.9281 17.9233C27.8985 9.0966 23.0894 8.09882 18.3359 4.88515C17.2278 4.13598 16.4506 3.38952 16.0515 3.72399C10.8036 8.12097 18.5936 22.2539 19.946 27.3519C20.1186 28.0026 21.1653 27.5543 22.1232 26.645C27.0842 21.9355 28.0088 16.776 28.8785 13.5692C29.4426 12.0581 29.9839 10.5588 30.595 8.99421C30.974 8.19824 31.493 7.39825 32.2841 6.35341"/>
</defs>
</svg>
