<svg width="119" height="7" viewBox="0 0 119 7" fill="none" xmlns="http://www.w3.org/2000/svg">
<path d="M1 1.80614C1.07187 2.24407 1.56266 3.5068 2.35707 4.2222C3.10801 4.89845 4.32006 3.57945 5.23271 2.75919C5.44666 2.5669 5.70858 2.48803 6.04919 2.60069C6.89741 2.88124 7.94193 4.06393 9.10968 5.09905C9.56885 5.50607 9.90194 5.49342 10.5552 5.25282C14.0769 3.95584 15.3889 2.06908 16.091 1.74626C16.4062 1.60137 16.6958 1.64293 17.0476 1.81189C19.1573 2.82521 20.7464 4.94488 21.7716 5.51076C22.8464 6.104 24.1771 4.24101 25.2375 3.31033C25.4645 3.11109 25.7537 3.01745 26.0111 2.99607C28.0171 2.82938 30.0397 5.79975 30.5371 5.92049C31.8017 6.22746 33.0366 4.36091 34.138 3.52771C35.2078 2.71836 37.6646 3.95145 39.4822 4.46385C40.2603 4.68323 41.0501 3.30283 41.979 2.6514C42.7062 2.1414 44.1305 3.70621 45.7572 4.55221C48.5405 5.99971 48.8695 2.11357 49.4892 2.09261C50.5378 2.05714 51.1882 3.14061 51.6766 3.40249C52.732 3.96833 54.1154 2.74222 55.4812 1.98754C55.8223 1.79908 56.1907 1.71025 56.5621 1.73614C57.3371 1.7902 58.4442 2.80196 59.7472 3.81064C61.3804 5.0749 63.5867 2.41719 64.4757 2.77593C65.1928 3.06526 66.0828 4.23533 66.7702 4.64587C67.4575 5.05641 67.8214 4.84143 68.1662 4.57276C68.8611 4.03112 69.3858 3.40044 69.8828 2.98876C71.2996 1.81522 73.6456 5.53856 74.105 5.73358C75.0761 6.14583 75.7823 4.49204 76.7378 3.45923C76.9863 3.19067 77.1778 2.92224 77.4642 2.81578C79.1752 2.17987 80.8676 4.53527 81.4538 4.31371C83.3053 3.61399 84.5099 1.9461 85.0609 1.76691C86.8416 1.1877 88.7607 3.90632 89.3127 4.21704C90.5723 4.92613 92.1921 2.72642 92.6421 2.40613C93.9524 1.47351 96.1848 3.4769 98.0659 4.64587C99.179 5.33758 101.387 4.37761 102.186 3.49206C102.552 3.08648 103.833 3.76222 105.216 4.15114C106.631 4.54909 107.584 2.8644 108.702 2.45548C109.992 1.98313 110.921 3.66679 111.331 3.82816C112.385 4.24319 113.256 2.18708 114.108 1.30221C114.342 1.06916 114.278 1.03689 114.566 1.00063C114.854 0.964368 116.217 2.51114 117.066 3.00028" stroke="#FF3BCB" stroke-width="2" stroke-linecap="round"/>
</svg>
