<svg width="7" height="9" viewBox="0 0 7 9" fill="none" xmlns="http://www.w3.org/2000/svg">
<path d="M3.0842 0.5C3.0842 0.612725 2.83084 2.59606 2.44696 5.63886C2.27483 7.00325 2.30845 7.38522 2.28726 7.62953C2.27631 7.75578 2.25591 7.88577 2.51076 7.54144C3.34695 6.41163 4.08757 5.00642 4.51136 4.15785C4.93076 3.31803 5.57187 2.47044 5.76522 1.98556C6.4206 0.342019 1.40586 3.03526 0.696297 3.25388C0.49333 3.31642 0.284639 3.36562 0.973835 3.66877C3.20342 4.64949 5.20805 5.2542 5.74864 5.53538C5.97583 5.65355 6.10957 5.71766 6.15616 5.69087C7.28667 5.04092 4.21792 2.57042 4.03638 2.14669C3.93623 1.94055 3.8104 1.69927 3.68141 1.44141C3.62436 1.31944 3.5844 1.21553 3.4221 0.914671" stroke="#FF3BCB" stroke-linecap="round"/>
</svg>
