<svg width="151" height="60" viewBox="0 0 151 60" fill="none" xmlns="http://www.w3.org/2000/svg">
<path d="M35.5952 24.6347C35.7985 23.5589 37.0915 18.2458 31.5952 19.0097C28.3004 19.0738 26.4381 19.4061 23.0952 20.3847C19.7783 20.9153 17.918 21.025 14.5952 20.7597C12.5423 20.5616 11.8568 19.9894 10.8452 18.7597C9.94542 17.402 9.89245 15.7789 10.8452 10.8847C10.8452 10.8847 11.5952 8.38468 11.5952 6.13468C11.5952 3.88468 11.3452 3.50958 12.3452 1.50968C13.3452 -0.490213 16.168 -0.40976 16.0952 1.75968C16.0223 3.92913 16.375 9.125 17.125 10.375C17.875 11.625 20.8452 14.7599 24.7202 15.1347C28.5952 15.5095 28.8452 15.6345 33.7202 15.0097C38.5952 14.3849 39.3452 11.1349 39.7202 9.38468C40.0952 7.63449 39.9702 4.00936 40.4702 1.88468C40.9702 -0.239991 41.9702 -0.365018 43.4702 0.509683C44.9702 1.38438 45.6771 2.88549 46.5 6.375C46.559 6.625 47.8452 11.2594 48.2202 16.6347C48.5952 22.01 49.4702 24.1344 50.0952 26.6347C50.7202 29.135 53.2202 35.0094 53.7202 36.7597C54.2202 38.51 56.4702 45.885 52.0952 51.5097C47.7202 57.1344 43.0952 58.0094 36.5952 58.6347C30.0952 59.26 25.2202 58.9791 21.8452 58.8847C18.4702 58.7902 12.8281 58.3398 7.47017 56.3847C3.20953 54.4385 1.72008 52.51 0.470172 47.7597C-0.779733 43.0094 0.720251 35.7594 1.97017 32.6347L1.97232 32.6293C3.22085 29.5081 3.88238 27.8544 6.97017 25.8847C9.59599 24.3192 13.2202 24.6347 13.2202 24.6347C13.2202 24.6347 19.3108 24.8809 22.9702 26.1347C26.6295 27.3885 27.7202 27.0097 31.5952 27.0097C35.4701 27.0097 35.3918 25.7104 35.5952 24.6347Z" fill="#FF3BCB"/>
<path d="M80.2973 6.46251C80.2973 6.46251 80.9223 9.71251 80.5473 13.7125C80.1723 17.7125 79.1723 20.2125 77.5473 20.8375C75.9223 21.4625 75.7971 21.4626 74.0473 21.2125C72.2974 20.9624 71.9549 19.4818 70.2973 18.5875C67.7539 17.4281 66.3523 17.4263 63.9223 19.3375C60.3026 23.0452 59.0503 25.7188 57.9223 31.3375C57.071 36.8297 56.9642 39.9407 57.9223 45.5875C58.9829 49.7297 60.0525 51.6239 62.7973 54.3375C66.866 57.5461 69.7179 58.5086 75.6723 58.9625C77.9178 59.0453 79.1766 59.0578 81.4223 58.9625C85.1255 58.7217 87.1285 58.2241 90.5473 56.5875C94.3116 54.4176 96.055 52.583 97.9223 47.2125C98.1957 45.9467 98.2713 45.0835 98.2973 43.3375C98.3067 42.708 98.2348 42.083 98.2348 41.3375L98.1723 39.3375C97.9223 35.708 97.6449 34.6498 96.4223 31.7125L93.9223 26.0875C94.0219 26.1541 91.9854 22.333 91.4932 19.708C91.001 17.083 91.2432 18.458 90.9932 17.083C90.7432 15.708 87.2263 5.21245 86.7973 3.83751C86.3683 2.46256 86.1419 1.89071 85.0473 0.837507C83.6303 -0.136594 82.8844 -0.199893 81.6723 0.837507C80.2019 2.69064 80.0224 3.96702 80.2973 6.46251Z" fill="#FF3BCB"/>
<path d="M108.417 8.94009C108.417 8.94009 108.533 6.10952 109.232 2.67608C109.931 -0.75735 113.657 -0.636897 113.831 2.67608C114.006 5.98906 113.773 7.07322 113.657 10.2049C113.54 13.3367 114.239 14.6623 115.869 16.3485C117.499 18.0347 121.109 18.6978 124.02 16.3485C126.931 13.9992 128.037 10.6865 128.445 9.60263C128.852 8.51876 130.511 5.0176 132.928 3.03747C136.136 0.441978 140.671 -0.636271 143.117 0.447542C145.562 1.53135 145.445 4.61743 142.709 4.48301C139.973 4.34859 137.005 2.87249 131.123 9.60263C125.241 16.3328 128.503 22.0707 138.11 17.6133C147.716 13.1559 149.521 25.5039 149.928 26.5275C150.336 27.5511 151.268 36.6459 150.511 43.5728C149.754 50.4997 149.369 53.0385 145.969 56.4622C142.569 59.886 138.119 59.7404 133.161 56.8838C128.202 54.0272 127.409 42.562 127.339 40.0192C127.268 37.4764 127.804 36.0038 125.883 26.5275C123.963 17.0512 113.51 20.7843 118.722 29.1174C123.934 37.4505 122.09 34.3698 124.02 38.2123C125.95 42.0548 126.524 49.4758 123.147 54.4144C119.77 59.353 108.186 61.6435 102.595 53.0893C97.0038 44.5351 106.204 22.131 106.67 19.9623C107.136 17.7937 107.427 16.6496 107.427 16.6496C107.668 15.2507 107.544 15.3249 107.835 13.0358C108.126 10.7467 108.189 10.5396 108.417 8.94009Z" fill="#FF3BCB"/>
</svg>
