<svg width="134" height="118" viewBox="0 0 134 118" fill="none" xmlns="http://www.w3.org/2000/svg">
<path d="M2.5 18.3682C2.5484 18.3682 2.59679 18.3682 4.64431 23.5853C6.69182 28.8023 10.737 39.2365 14.9047 50.1335" stroke="#FF3BCB" stroke-width="5" stroke-linecap="round"/>
<path d="M3.43311 34.179C3.53073 34.179 3.62836 34.179 5.74838 33.0817C7.8684 31.9845 12.0079 29.79 16.4194 27.3799" stroke="#FF3BCB" stroke-width="5" stroke-linecap="round"/>
<path d="M16.6826 14.0674C17.1699 15.7742 23.3893 29.2024 26.818 35.6538C29.1099 39.966 24.976 21.9809 26.2915 18.8831C26.9421 17.3509 29.5186 18.7086 30.9514 19.5613C34.4045 22.6788 36.2995 25.3209 37.5816 27.6648C38.2003 28.8489 38.7544 30.022 39.6185 32.1157" stroke="#FF3BCB" stroke-width="5" stroke-linecap="round"/>
<path d="M44.4907 11.0742C44.5775 11.8661 44.6643 12.6579 45.0327 14.2436C45.4012 15.8293 46.0487 18.1848 47.3176 21.6173C48.5865 25.0498 50.4572 29.488 52.678 34.5032" stroke="#FF3BCB" stroke-width="5" stroke-linecap="round"/>
<path d="M38.9531 2.64918L40.7155 2.5" stroke="#FF3BCB" stroke-width="5" stroke-linecap="round"/>
<path d="M65.1056 6.11548C64.2872 5.66675 61.3732 4.53958 57.6671 4.58845C56.4253 4.60483 56.7135 6.84465 56.8103 8.19964C56.8606 8.90366 57.1007 9.62138 57.5325 10.1597C59.6539 12.8041 64.3916 12.8011 66.3177 14.7046C67.3745 15.749 67.2728 17.5483 67.1492 18.9955C67.0892 19.6987 66.5834 20.2632 66.0655 20.6363C63.3633 21.3525 60.7476 21.142 59.2543 20.5378C58.5387 20.2424 57.9087 19.9695 56.9613 19.5392" stroke="#FF3BCB" stroke-width="5" stroke-linecap="round"/>
<path d="M67.9829 47.9746C68.5837 49.0894 69.1844 50.2041 69.879 51.9061C70.5736 53.608 71.3437 55.8634 72.4305 59.3654" stroke="#FF3BCB" stroke-width="5" stroke-linecap="round"/>
<path d="M64.6958 39.9519L65.2824 39.8027" stroke="#FF3BCB" stroke-width="5" stroke-linecap="round"/>
<path d="M82.5897 38.3738C81.7628 37.9159 78.1482 37.1906 75.4926 38.2311C74.2377 38.7228 74.7944 40.9112 75.1553 42.2277C75.3432 42.9131 76.2379 43.3389 77.0682 43.596C78.7554 44.1182 80.3928 43.5576 81.7775 43.3975C83.521 43.196 84.6891 45.8348 85.3861 47.9355C85.9424 49.6124 85.8023 51.114 85.4373 52.2722C84.5408 53.0699 83.2241 53.382 81.8206 53.2331C81.1355 53.085 80.5055 52.7896 78.5138 51.2918" stroke="#FF3BCB" stroke-width="5" stroke-linecap="round"/>
<path d="M17.9771 95.6191C24.5226 97.6928 35.7463 102.473 38.7035 104.134C39.4196 104.492 40.0754 104.788 40.8672 104.989C41.6589 105.19 42.5668 105.287 43.5021 105.237" stroke="#FF3BCB" stroke-width="5" stroke-linecap="round"/>
<path d="M36.751 87.9375C37.1965 89.336 37.6421 90.7344 38.0352 91.8019C38.4283 92.8695 38.7554 93.5637 40.087 97.1121C41.4187 100.66 43.745 107.042 46.5817 115.088" stroke="#FF3BCB" stroke-width="5" stroke-linecap="round"/>
<path d="M51.6588 87.5053C51.5603 87.5053 50.8696 87.9426 49.7389 89.006C48.5419 90.1317 48.545 92.1746 48.6381 94.0492C48.7372 96.0428 49.9163 97.4495 50.9424 98.3154C52.0595 99.2581 53.6193 99.4932 55.054 99.2941C56.5913 99.0808 57.3615 97.1728 57.9162 95.6242C58.4553 91.9262 58.0615 88.5417 57.0643 87.2717C56.4609 86.6416 55.6598 86.0408 54.6854 85.4219" stroke="#FF3BCB" stroke-width="5" stroke-linecap="round"/>
<path d="M66.893 79.7425C66.6961 79.7425 65.9772 80.5277 64.9611 82.5388C63.6431 85.1477 64.4834 87.8447 65.0942 89.3003C65.7137 90.7768 67.141 91.7871 68.6168 92.5214C70.0028 93.211 71.7807 93.0626 73.4645 92.9149C74.2538 92.8456 74.867 92.4718 75.3667 91.8553C77.7652 88.8959 76.3661 84.3626 74.6813 80.9416C74.0062 80.203 73.1167 79.6723 72.2188 79.2746C71.3208 78.8769 70.4414 78.6283 68.9385 78.3721" stroke="#FF3BCB" stroke-width="5" stroke-linecap="round"/>
<path d="M81.6948 70.5996C81.6948 70.6964 82.6027 72.5018 84.1926 75.458C85.3036 77.251 87.7564 81.6972 91.0105 87.8451C92.2538 90.1574 92.6685 90.8299 93.0958 90.1701" stroke="#FF3BCB" stroke-width="5" stroke-linecap="round"/>
<path d="M82.6074 71.6694C83.8054 71.7311 94.4942 74.4648 104.969 78.2397C107.463 79.1383 108.937 79.7462 109.831 79.2948C110.085 78.7567 109.934 77.5911 108.337 74.6351C106.74 71.6791 103.702 66.968 100.423 62.1143" stroke="#FF3BCB" stroke-width="5" stroke-linecap="round"/>
<path d="M112.515 53.1152C117.169 57.7176 123.695 64.0525 124.684 67.1503C124.918 67.8826 124.367 68.5705 123.686 69.2241C121.949 70.5135 118.961 71.2796 115.729 71.182C114.398 70.9734 113.692 70.4419 112.178 68.582" stroke="#FF3BCB" stroke-width="5" stroke-linecap="round"/>
<path d="M106.638 45.4863L106.785 46.3688" stroke="#FF3BCB" stroke-width="5" stroke-linecap="round"/>
<path d="M124.978 33.4883C124.978 33.5501 124.978 33.6119 125.017 35.423C125.057 37.2341 125.136 40.7925 125.302 43.4159C125.469 46.0393 125.72 47.6198 126.166 49.6228" stroke="#FF3BCB" stroke-width="5" stroke-linecap="round"/>
<path d="M129.612 58.4844L131.298 58.6717" stroke="#FF3BCB" stroke-width="5" stroke-linecap="round"/>
</svg>
