<svg width="70" height="70" viewBox="0 0 70 70" fill="none" xmlns="http://www.w3.org/2000/svg">
<path d="M20.3711 2.5C20.3711 2.67602 20.3711 2.85204 20.8952 17.863C21.4193 32.8739 22.4675 62.7144 27.9242 66.7595C33.3809 70.8046 43.2144 48.1502 48.5488 35.8806C55.2338 20.5048 56.9621 17.7604 57.1362 15.4366C57.2796 13.5236 48.7413 17.5216 38.5244 22.3121C33.402 24.7138 28.5324 27.3212 23.4321 29.6547C6.71787 37.3017 3.07373 38.3237 2.68284 39.2789C0.658892 44.2241 15.8544 45.7086 27.6756 48.3692C35.1721 50.0564 45.9637 51.1781 51.8189 51.9157C59.645 52.9016 63.2068 53.0884 66.098 52.5244C68.506 52.0548 60.4629 43.3861 51.3753 33.909C46.8979 29.2398 42.1052 25.4367 38.194 21.6975C27.2541 10.0721 24.8749 7.36402 23.6799 5.98067C23.1046 5.35664 22.5923 4.89094 22.0645 4.41113" stroke="#FF3BCB" stroke-width="5" stroke-linecap="round"/>
</svg>
